<svg width="460" height="72" viewBox="0 0 460 72" fill="none" xmlns="http://www.w3.org/2000/svg">
<rect x="26.5" y="41.5" width="83" height="30" rx="15" fill="#111111" stroke="#FEFEFE"/>
<rect x="130.5" y="41.5" width="81" height="30" rx="15" fill="#111111" stroke="#FEFEFE"/>
<rect x="232.5" y="41.5" width="100" height="30" rx="15" fill="#111111" stroke="#FEFEFE"/>
<rect x="353.5" y="41.5" width="89" height="30" rx="15" fill="#111111" stroke="#FEFEFE"/>
<path d="M44.2649 61V52.48H45.2969V61H44.2649ZM46.8725 61V54.64H47.7965L47.8325 56.26L47.7125 56.152C47.7925 55.776 47.9325 55.468 48.1325 55.228C48.3325 54.98 48.5725 54.796 48.8525 54.676C49.1405 54.556 49.4485 54.496 49.7765 54.496C50.2645 54.496 50.6645 54.604 50.9765 54.82C51.2965 55.036 51.5325 55.328 51.6845 55.696C51.8445 56.056 51.9245 56.46 51.9245 56.908V61H50.9165V57.196C50.9165 56.804 50.8685 56.476 50.7725 56.212C50.6845 55.94 50.5405 55.736 50.3405 55.6C50.1405 55.456 49.8805 55.384 49.5605 55.384C49.0725 55.384 48.6685 55.54 48.3485 55.852C48.0365 56.156 47.8805 56.604 47.8805 57.196V61H46.8725ZM55.0927 61C54.5167 61 54.0887 60.868 53.8087 60.604C53.5367 60.34 53.4007 59.928 53.4007 59.368V53.152H54.4087V59.344C54.4087 59.632 54.4727 59.832 54.6007 59.944C54.7287 60.056 54.9247 60.112 55.1887 60.112H56.1007V61H55.0927ZM52.4647 55.528V54.64H56.1007V55.528H52.4647ZM59.1604 61.144C58.5604 61.144 58.0404 61.008 57.6004 60.736C57.1684 60.464 56.8324 60.08 56.5924 59.584C56.3604 59.08 56.2444 58.492 56.2444 57.82C56.2444 57.148 56.3604 56.564 56.5924 56.068C56.8324 55.572 57.1644 55.188 57.5884 54.916C58.0204 54.636 58.5284 54.496 59.1124 54.496C59.6644 54.496 60.1524 54.628 60.5764 54.892C61.0004 55.148 61.3284 55.524 61.5604 56.02C61.8004 56.516 61.9204 57.12 61.9204 57.832V58.132H57.3004C57.3404 58.812 57.5204 59.324 57.8404 59.668C58.1684 60.012 58.6084 60.184 59.1604 60.184C59.5764 60.184 59.9164 60.088 60.1804 59.896C60.4524 59.696 60.6404 59.436 60.7444 59.116L61.8244 59.2C61.6564 59.768 61.3364 60.236 60.8644 60.604C60.4004 60.964 59.8324 61.144 59.1604 61.144ZM57.3004 57.244H60.8164C60.7684 56.628 60.5884 56.176 60.2764 55.888C59.9724 55.6 59.5844 55.456 59.1124 55.456C58.6244 55.456 58.2204 55.608 57.9004 55.912C57.5884 56.208 57.3884 56.652 57.3004 57.244ZM62.6858 61V54.64H63.5738L63.6218 56.248L63.5258 56.212C63.6058 55.668 63.7778 55.272 64.0418 55.024C64.3138 54.768 64.6738 54.64 65.1218 54.64H65.7458V55.6H65.1338C64.8138 55.6 64.5458 55.66 64.3298 55.78C64.1218 55.892 63.9618 56.064 63.8498 56.296C63.7458 56.52 63.6938 56.808 63.6938 57.16V61H62.6858ZM66.1522 61V54.64H67.0762L67.1122 56.26L66.9922 56.152C67.0722 55.776 67.2122 55.468 67.4122 55.228C67.6122 54.98 67.8522 54.796 68.1322 54.676C68.4202 54.556 68.7282 54.496 69.0562 54.496C69.5442 54.496 69.9442 54.604 70.2562 54.82C70.5762 55.036 70.8122 55.328 70.9642 55.696C71.1242 56.056 71.2042 56.46 71.2042 56.908V61H70.1962V57.196C70.1962 56.804 70.1482 56.476 70.0522 56.212C69.9642 55.94 69.8202 55.736 69.6202 55.6C69.4202 55.456 69.1602 55.384 68.8402 55.384C68.3522 55.384 67.9482 55.54 67.6282 55.852C67.3162 56.156 67.1602 56.604 67.1602 57.196V61H66.1522ZM74.7002 61.144C74.1322 61.144 73.6482 61.052 73.2482 60.868C72.8562 60.684 72.5482 60.432 72.3242 60.112C72.1082 59.784 71.9842 59.412 71.9522 58.996L73.0082 58.924C73.0722 59.308 73.2362 59.616 73.5002 59.848C73.7642 60.072 74.1642 60.184 74.7002 60.184C75.1322 60.184 75.4762 60.116 75.7322 59.98C75.9962 59.836 76.1282 59.608 76.1282 59.296C76.1282 59.128 76.0882 58.988 76.0082 58.876C75.9282 58.764 75.7722 58.668 75.5402 58.588C75.3082 58.5 74.9642 58.416 74.5082 58.336C73.9002 58.224 73.4202 58.088 73.0682 57.928C72.7242 57.76 72.4762 57.556 72.3242 57.316C72.1802 57.068 72.1082 56.776 72.1082 56.44C72.1082 55.872 72.3162 55.408 72.7322 55.048C73.1482 54.68 73.7402 54.496 74.5082 54.496C75.0282 54.496 75.4642 54.592 75.8162 54.784C76.1762 54.968 76.4562 55.216 76.6562 55.528C76.8642 55.832 77.0002 56.168 77.0642 56.536L76.0082 56.608C75.9602 56.384 75.8722 56.188 75.7442 56.02C75.6162 55.844 75.4482 55.708 75.2402 55.612C75.0322 55.508 74.7842 55.456 74.4962 55.456C74.0402 55.456 73.7042 55.544 73.4882 55.72C73.2722 55.896 73.1642 56.12 73.1642 56.392C73.1642 56.6 73.2122 56.772 73.3082 56.908C73.4122 57.036 73.5762 57.144 73.8002 57.232C74.0242 57.312 74.3242 57.384 74.7002 57.448C75.3482 57.56 75.8522 57.696 76.2122 57.856C76.5722 58.016 76.8242 58.212 76.9682 58.444C77.1122 58.676 77.1842 58.96 77.1842 59.296C77.1842 59.688 77.0722 60.024 76.8482 60.304C76.6322 60.576 76.3362 60.784 75.9602 60.928C75.5922 61.072 75.1722 61.144 74.7002 61.144ZM77.96 61V52.48H78.968V56.044L78.848 56.02C78.928 55.668 79.064 55.38 79.256 55.156C79.448 54.932 79.684 54.768 79.964 54.664C80.244 54.552 80.552 54.496 80.888 54.496C81.344 54.496 81.728 54.6 82.04 54.808C82.36 55.008 82.6 55.292 82.76 55.66C82.928 56.02 83.012 56.436 83.012 56.908V61H82.004V57.196C82.004 56.58 81.892 56.124 81.668 55.828C81.452 55.532 81.12 55.384 80.672 55.384C80.16 55.384 79.748 55.54 79.436 55.852C79.124 56.164 78.968 56.616 78.968 57.208V61H77.96ZM84.2155 61V54.64H85.2235V61H84.2155ZM84.1915 53.644V52.468H85.2475V53.644H84.1915ZM86.6623 62.8V54.64H87.5983L87.6223 56.008L87.4783 55.936C87.6383 55.464 87.9023 55.108 88.2703 54.868C88.6463 54.62 89.0783 54.496 89.5663 54.496C90.1983 54.496 90.7143 54.652 91.1143 54.964C91.5223 55.276 91.8223 55.684 92.0143 56.188C92.2143 56.692 92.3143 57.236 92.3143 57.82C92.3143 58.404 92.2143 58.948 92.0143 59.452C91.8223 59.956 91.5223 60.364 91.1143 60.676C90.7143 60.988 90.1983 61.144 89.5663 61.144C89.2383 61.144 88.9303 61.088 88.6423 60.976C88.3623 60.864 88.1223 60.708 87.9223 60.508C87.7303 60.308 87.5983 60.072 87.5263 59.8L87.6703 59.632V62.8H86.6623ZM89.4703 60.184C90.0223 60.184 90.4583 59.976 90.7783 59.56C91.0983 59.144 91.2583 58.564 91.2583 57.82C91.2583 57.076 91.0983 56.496 90.7783 56.08C90.4583 55.664 90.0223 55.456 89.4703 55.456C89.1023 55.456 88.7823 55.544 88.5103 55.72C88.2463 55.896 88.0383 56.16 87.8863 56.512C87.7423 56.864 87.6703 57.3 87.6703 57.82C87.6703 58.34 87.7423 58.776 87.8863 59.128C88.0303 59.48 88.2383 59.744 88.5103 59.92C88.7823 60.096 89.1023 60.184 89.4703 60.184Z" fill="white"/>
<path d="M148.424 61V52.48H151.484C152.436 52.48 153.176 52.708 153.704 53.164C154.232 53.62 154.496 54.252 154.496 55.06C154.496 55.604 154.376 56.076 154.136 56.476C153.896 56.868 153.552 57.168 153.104 57.376C152.656 57.584 152.116 57.688 151.484 57.688H149.456V61H148.424ZM149.456 56.68H151.484C152.124 56.68 152.604 56.544 152.924 56.272C153.252 56 153.416 55.596 153.416 55.06C153.416 54.54 153.252 54.148 152.924 53.884C152.604 53.62 152.124 53.488 151.484 53.488H149.456V56.68ZM156.931 61.144C156.275 61.144 155.751 60.992 155.359 60.688C154.975 60.384 154.783 59.96 154.783 59.416C154.783 58.872 154.943 58.444 155.263 58.132C155.583 57.82 156.091 57.6 156.787 57.472L159.043 57.052C159.043 56.516 158.915 56.116 158.659 55.852C158.411 55.588 158.035 55.456 157.531 55.456C157.091 55.456 156.743 55.556 156.487 55.756C156.231 55.948 156.055 56.228 155.959 56.596L154.891 56.512C155.011 55.912 155.299 55.428 155.755 55.06C156.219 54.684 156.811 54.496 157.531 54.496C158.347 54.496 158.971 54.728 159.403 55.192C159.835 55.648 160.051 56.28 160.051 57.088V59.716C160.051 59.86 160.075 59.964 160.123 60.028C160.179 60.084 160.267 60.112 160.387 60.112H160.639V61C160.607 61.008 160.555 61.012 160.483 61.012C160.411 61.02 160.335 61.024 160.255 61.024C159.967 61.024 159.731 60.98 159.547 60.892C159.371 60.796 159.243 60.652 159.163 60.46C159.083 60.26 159.043 60 159.043 59.68L159.163 59.704C159.107 59.976 158.971 60.224 158.755 60.448C158.539 60.664 158.271 60.836 157.951 60.964C157.631 61.084 157.291 61.144 156.931 61.144ZM157.027 60.256C157.451 60.256 157.811 60.176 158.107 60.016C158.411 59.848 158.643 59.624 158.803 59.344C158.963 59.056 159.043 58.736 159.043 58.384V57.928L156.979 58.312C156.547 58.392 156.247 58.516 156.079 58.684C155.919 58.844 155.839 59.056 155.839 59.32C155.839 59.616 155.943 59.848 156.151 60.016C156.367 60.176 156.659 60.256 157.027 60.256ZM161.178 61V54.64H162.066L162.114 56.248L162.018 56.212C162.098 55.668 162.27 55.272 162.534 55.024C162.806 54.768 163.166 54.64 163.614 54.64H164.238V55.6H163.626C163.306 55.6 163.038 55.66 162.822 55.78C162.614 55.892 162.454 56.064 162.342 56.296C162.238 56.52 162.186 56.808 162.186 57.16V61H161.178ZM166.855 61C166.279 61 165.851 60.868 165.571 60.604C165.299 60.34 165.163 59.928 165.163 59.368V53.152H166.171V59.344C166.171 59.632 166.235 59.832 166.363 59.944C166.491 60.056 166.687 60.112 166.951 60.112H167.863V61H166.855ZM164.227 55.528V54.64H167.863V55.528H164.227ZM172.862 61V53.488H170.21V52.48H176.546V53.488H173.894V61H172.862ZM176.684 61V54.64H177.692V61H176.684ZM176.66 53.644V52.468H177.716V53.644H176.66ZM179.131 61V54.64H180.055L180.091 56.248L179.947 56.2C180.019 55.848 180.143 55.548 180.319 55.3C180.503 55.044 180.727 54.848 180.991 54.712C181.255 54.568 181.547 54.496 181.867 54.496C182.419 54.496 182.867 54.648 183.211 54.952C183.563 55.256 183.783 55.68 183.871 56.224L183.679 56.212C183.743 55.844 183.859 55.536 184.027 55.288C184.203 55.032 184.427 54.836 184.699 54.7C184.971 54.564 185.283 54.496 185.635 54.496C186.091 54.496 186.475 54.592 186.787 54.784C187.099 54.968 187.335 55.24 187.495 55.6C187.655 55.96 187.735 56.396 187.735 56.908V61H186.727V57.124C186.727 56.548 186.615 56.116 186.391 55.828C186.167 55.532 185.835 55.384 185.395 55.384C185.099 55.384 184.839 55.456 184.615 55.6C184.399 55.744 184.231 55.952 184.111 56.224C183.991 56.488 183.931 56.812 183.931 57.196V61H182.923V57.196C182.923 56.628 182.823 56.184 182.623 55.864C182.423 55.544 182.087 55.384 181.615 55.384C181.319 55.384 181.059 55.456 180.835 55.6C180.619 55.744 180.447 55.952 180.319 56.224C180.199 56.496 180.139 56.82 180.139 57.196V61H179.131ZM191.398 61.144C190.798 61.144 190.278 61.008 189.838 60.736C189.406 60.464 189.07 60.08 188.83 59.584C188.598 59.08 188.482 58.492 188.482 57.82C188.482 57.148 188.598 56.564 188.83 56.068C189.07 55.572 189.402 55.188 189.826 54.916C190.258 54.636 190.766 54.496 191.35 54.496C191.902 54.496 192.39 54.628 192.814 54.892C193.238 55.148 193.566 55.524 193.798 56.02C194.038 56.516 194.158 57.12 194.158 57.832V58.132H189.538C189.578 58.812 189.758 59.324 190.078 59.668C190.406 60.012 190.846 60.184 191.398 60.184C191.814 60.184 192.154 60.088 192.418 59.896C192.69 59.696 192.878 59.436 192.982 59.116L194.062 59.2C193.894 59.768 193.574 60.236 193.102 60.604C192.638 60.964 192.07 61.144 191.398 61.144ZM189.538 57.244H193.054C193.006 56.628 192.826 56.176 192.514 55.888C192.21 55.6 191.822 55.456 191.35 55.456C190.862 55.456 190.458 55.608 190.138 55.912C189.826 56.208 189.626 56.652 189.538 57.244Z" fill="white"/>
<path d="M253.477 61.192C252.717 61.192 252.049 61.016 251.473 60.664C250.897 60.304 250.449 59.792 250.129 59.128C249.809 58.464 249.649 57.672 249.649 56.752C249.649 55.832 249.809 55.04 250.129 54.376C250.449 53.704 250.897 53.188 251.473 52.828C252.049 52.468 252.717 52.288 253.477 52.288C254.509 52.288 255.309 52.548 255.877 53.068C256.445 53.588 256.817 54.296 256.993 55.192L255.901 55.264C255.781 54.656 255.525 54.176 255.133 53.824C254.741 53.472 254.189 53.296 253.477 53.296C252.933 53.296 252.453 53.436 252.037 53.716C251.629 53.988 251.309 54.384 251.077 54.904C250.845 55.416 250.729 56.032 250.729 56.752C250.729 57.472 250.845 58.088 251.077 58.6C251.309 59.112 251.629 59.504 252.037 59.776C252.453 60.048 252.933 60.184 253.477 60.184C254.221 60.184 254.797 59.992 255.205 59.608C255.613 59.216 255.869 58.688 255.973 58.024L257.065 58.096C256.961 58.712 256.757 59.252 256.453 59.716C256.149 60.18 255.745 60.544 255.241 60.808C254.745 61.064 254.157 61.192 253.477 61.192ZM257.93 61V52.48H258.938V56.044L258.818 56.02C258.898 55.668 259.034 55.38 259.226 55.156C259.418 54.932 259.654 54.768 259.934 54.664C260.214 54.552 260.522 54.496 260.858 54.496C261.314 54.496 261.698 54.6 262.01 54.808C262.33 55.008 262.57 55.292 262.73 55.66C262.898 56.02 262.982 56.436 262.982 56.908V61H261.974V57.196C261.974 56.58 261.862 56.124 261.638 55.828C261.422 55.532 261.09 55.384 260.642 55.384C260.13 55.384 259.718 55.54 259.406 55.852C259.094 56.164 258.938 56.616 258.938 57.208V61H257.93ZM264.185 61V54.64H265.193V61H264.185ZM264.161 53.644V52.468H265.217V53.644H264.161ZM268.882 61.144C268.29 61.144 267.774 61.008 267.334 60.736C266.902 60.464 266.566 60.08 266.326 59.584C266.086 59.08 265.966 58.492 265.966 57.82C265.966 57.148 266.086 56.564 266.326 56.068C266.566 55.572 266.902 55.188 267.334 54.916C267.774 54.636 268.29 54.496 268.882 54.496C269.37 54.496 269.802 54.584 270.178 54.76C270.562 54.928 270.874 55.176 271.114 55.504C271.354 55.832 271.51 56.232 271.582 56.704L270.526 56.776C270.454 56.352 270.27 56.028 269.974 55.804C269.678 55.572 269.314 55.456 268.882 55.456C268.298 55.456 267.842 55.668 267.514 56.092C267.186 56.508 267.021 57.084 267.021 57.82C267.021 58.556 267.186 59.136 267.514 59.56C267.842 59.976 268.298 60.184 268.882 60.184C269.314 60.184 269.678 60.064 269.974 59.824C270.27 59.584 270.454 59.224 270.526 58.744L271.582 58.816C271.51 59.288 271.354 59.7 271.114 60.052C270.874 60.396 270.562 60.664 270.178 60.856C269.802 61.048 269.37 61.144 268.882 61.144ZM274.111 61.144C273.455 61.144 272.931 60.992 272.539 60.688C272.155 60.384 271.963 59.96 271.963 59.416C271.963 58.872 272.123 58.444 272.443 58.132C272.763 57.82 273.271 57.6 273.967 57.472L276.223 57.052C276.223 56.516 276.095 56.116 275.839 55.852C275.591 55.588 275.215 55.456 274.711 55.456C274.271 55.456 273.923 55.556 273.667 55.756C273.411 55.948 273.235 56.228 273.139 56.596L272.071 56.512C272.191 55.912 272.479 55.428 272.935 55.06C273.399 54.684 273.991 54.496 274.711 54.496C275.527 54.496 276.151 54.728 276.583 55.192C277.015 55.648 277.231 56.28 277.231 57.088V59.716C277.231 59.86 277.255 59.964 277.303 60.028C277.359 60.084 277.447 60.112 277.567 60.112H277.819V61C277.787 61.008 277.735 61.012 277.663 61.012C277.591 61.02 277.515 61.024 277.435 61.024C277.147 61.024 276.911 60.98 276.727 60.892C276.551 60.796 276.423 60.652 276.343 60.46C276.263 60.26 276.223 60 276.223 59.68L276.343 59.704C276.287 59.976 276.151 60.224 275.935 60.448C275.719 60.664 275.451 60.836 275.131 60.964C274.811 61.084 274.471 61.144 274.111 61.144ZM274.207 60.256C274.631 60.256 274.991 60.176 275.287 60.016C275.591 59.848 275.823 59.624 275.983 59.344C276.143 59.056 276.223 58.736 276.223 58.384V57.928L274.159 58.312C273.727 58.392 273.427 58.516 273.259 58.684C273.099 58.844 273.019 59.056 273.019 59.32C273.019 59.616 273.123 59.848 273.331 60.016C273.547 60.176 273.839 60.256 274.207 60.256ZM280.746 62.944C280.29 62.944 279.878 62.868 279.51 62.716C279.142 62.564 278.834 62.348 278.586 62.068C278.338 61.788 278.17 61.464 278.082 61.096L279.138 61.024C279.234 61.32 279.402 61.552 279.642 61.72C279.89 61.896 280.258 61.984 280.746 61.984C281.322 61.984 281.762 61.868 282.066 61.636C282.378 61.404 282.534 61.056 282.534 60.592V59.56C282.382 59.896 282.138 60.164 281.802 60.364C281.466 60.564 281.09 60.664 280.674 60.664C280.138 60.664 279.658 60.532 279.234 60.268C278.818 60.004 278.49 59.64 278.25 59.176C278.018 58.712 277.902 58.18 277.902 57.58C277.902 56.972 278.018 56.44 278.25 55.984C278.482 55.52 278.802 55.156 279.21 54.892C279.626 54.628 280.098 54.496 280.626 54.496C281.074 54.496 281.474 54.6 281.826 54.808C282.186 55.016 282.438 55.296 282.582 55.648V54.64H283.542V60.568C283.542 61.064 283.43 61.488 283.206 61.84C282.982 62.2 282.662 62.472 282.246 62.656C281.83 62.848 281.33 62.944 280.746 62.944ZM280.722 59.704C281.266 59.704 281.702 59.516 282.03 59.14C282.358 58.756 282.526 58.236 282.534 57.58C282.542 57.14 282.47 56.764 282.318 56.452C282.174 56.132 281.962 55.888 281.682 55.72C281.41 55.544 281.09 55.456 280.722 55.456C280.162 55.456 279.726 55.648 279.414 56.032C279.11 56.408 278.958 56.924 278.958 57.58C278.958 58.236 279.114 58.756 279.426 59.14C279.746 59.516 280.178 59.704 280.722 59.704ZM287.226 61.144C286.642 61.144 286.13 61.008 285.69 60.736C285.25 60.464 284.91 60.08 284.67 59.584C284.43 59.08 284.31 58.492 284.31 57.82C284.31 57.14 284.43 56.552 284.67 56.056C284.91 55.56 285.25 55.176 285.69 54.904C286.13 54.632 286.642 54.496 287.226 54.496C287.81 54.496 288.318 54.632 288.75 54.904C289.19 55.176 289.53 55.56 289.77 56.056C290.01 56.552 290.13 57.14 290.13 57.82C290.13 58.492 290.01 59.08 289.77 59.584C289.53 60.08 289.19 60.464 288.75 60.736C288.318 61.008 287.81 61.144 287.226 61.144ZM287.226 60.184C287.81 60.184 288.262 59.976 288.582 59.56C288.91 59.136 289.074 58.556 289.074 57.82C289.074 57.084 288.91 56.508 288.582 56.092C288.262 55.668 287.81 55.456 287.226 55.456C286.642 55.456 286.186 55.668 285.858 56.092C285.53 56.508 285.366 57.084 285.366 57.82C285.366 58.556 285.53 59.136 285.858 59.56C286.186 59.976 286.642 60.184 287.226 60.184ZM292.701 61L295.773 52.48H297.165L300.237 61H299.109L298.257 58.576H294.681L293.829 61H292.701ZM295.029 57.568H297.909L296.469 53.38L295.029 57.568ZM300.602 61V54.64H301.49L301.538 56.248L301.442 56.212C301.522 55.668 301.694 55.272 301.958 55.024C302.23 54.768 302.59 54.64 303.038 54.64H303.662V55.6H303.05C302.73 55.6 302.462 55.66 302.246 55.78C302.038 55.892 301.878 56.064 301.766 56.296C301.662 56.52 301.61 56.808 301.61 57.16V61H300.602ZM306.553 61.144C305.953 61.144 305.433 61.008 304.993 60.736C304.561 60.464 304.225 60.08 303.985 59.584C303.753 59.08 303.637 58.492 303.637 57.82C303.637 57.148 303.753 56.564 303.985 56.068C304.225 55.572 304.557 55.188 304.981 54.916C305.413 54.636 305.921 54.496 306.505 54.496C307.057 54.496 307.545 54.628 307.969 54.892C308.393 55.148 308.721 55.524 308.953 56.02C309.193 56.516 309.313 57.12 309.313 57.832V58.132H304.693C304.733 58.812 304.913 59.324 305.233 59.668C305.561 60.012 306.001 60.184 306.553 60.184C306.969 60.184 307.309 60.088 307.573 59.896C307.845 59.696 308.033 59.436 308.137 59.116L309.217 59.2C309.049 59.768 308.729 60.236 308.257 60.604C307.793 60.964 307.225 61.144 306.553 61.144ZM304.693 57.244H308.209C308.161 56.628 307.981 56.176 307.669 55.888C307.365 55.6 306.977 55.456 306.505 55.456C306.017 55.456 305.613 55.608 305.293 55.912C304.981 56.208 304.781 56.652 304.693 57.244ZM311.958 61.144C311.302 61.144 310.778 60.992 310.386 60.688C310.002 60.384 309.81 59.96 309.81 59.416C309.81 58.872 309.97 58.444 310.29 58.132C310.61 57.82 311.118 57.6 311.814 57.472L314.07 57.052C314.07 56.516 313.942 56.116 313.686 55.852C313.438 55.588 313.062 55.456 312.558 55.456C312.118 55.456 311.77 55.556 311.514 55.756C311.258 55.948 311.082 56.228 310.986 56.596L309.918 56.512C310.038 55.912 310.326 55.428 310.782 55.06C311.246 54.684 311.838 54.496 312.558 54.496C313.374 54.496 313.998 54.728 314.43 55.192C314.862 55.648 315.078 56.28 315.078 57.088V59.716C315.078 59.86 315.102 59.964 315.15 60.028C315.206 60.084 315.294 60.112 315.414 60.112H315.666V61C315.634 61.008 315.582 61.012 315.51 61.012C315.438 61.02 315.362 61.024 315.282 61.024C314.994 61.024 314.758 60.98 314.574 60.892C314.398 60.796 314.27 60.652 314.19 60.46C314.11 60.26 314.07 60 314.07 59.68L314.19 59.704C314.134 59.976 313.998 60.224 313.782 60.448C313.566 60.664 313.298 60.836 312.978 60.964C312.658 61.084 312.318 61.144 311.958 61.144ZM312.054 60.256C312.478 60.256 312.838 60.176 313.134 60.016C313.438 59.848 313.67 59.624 313.83 59.344C313.99 59.056 314.07 58.736 314.07 58.384V57.928L312.006 58.312C311.574 58.392 311.274 58.516 311.106 58.684C310.946 58.844 310.866 59.056 310.866 59.32C310.866 59.616 310.97 59.848 311.178 60.016C311.394 60.176 311.686 60.256 312.054 60.256Z" fill="white"/>
<path d="M371.47 61V52.48H372.91L375.634 59.872L378.346 52.48H379.786V61H378.754V54.4L376.318 61H374.938L372.502 54.4V61H371.47ZM382.848 61.144C382.192 61.144 381.668 60.992 381.276 60.688C380.892 60.384 380.7 59.96 380.7 59.416C380.7 58.872 380.86 58.444 381.18 58.132C381.5 57.82 382.008 57.6 382.704 57.472L384.96 57.052C384.96 56.516 384.832 56.116 384.576 55.852C384.328 55.588 383.952 55.456 383.448 55.456C383.008 55.456 382.66 55.556 382.404 55.756C382.148 55.948 381.972 56.228 381.876 56.596L380.808 56.512C380.928 55.912 381.216 55.428 381.672 55.06C382.136 54.684 382.728 54.496 383.448 54.496C384.264 54.496 384.888 54.728 385.32 55.192C385.752 55.648 385.968 56.28 385.968 57.088V59.716C385.968 59.86 385.992 59.964 386.04 60.028C386.096 60.084 386.184 60.112 386.304 60.112H386.556V61C386.524 61.008 386.472 61.012 386.4 61.012C386.328 61.02 386.252 61.024 386.172 61.024C385.884 61.024 385.648 60.98 385.464 60.892C385.288 60.796 385.16 60.652 385.08 60.46C385 60.26 384.96 60 384.96 59.68L385.08 59.704C385.024 59.976 384.888 60.224 384.672 60.448C384.456 60.664 384.188 60.836 383.868 60.964C383.548 61.084 383.208 61.144 382.848 61.144ZM382.944 60.256C383.368 60.256 383.728 60.176 384.024 60.016C384.328 59.848 384.56 59.624 384.72 59.344C384.88 59.056 384.96 58.736 384.96 58.384V57.928L382.896 58.312C382.464 58.392 382.164 58.516 381.996 58.684C381.836 58.844 381.756 59.056 381.756 59.32C381.756 59.616 381.86 59.848 382.068 60.016C382.284 60.176 382.576 60.256 382.944 60.256ZM387.095 61V54.64H388.019L388.055 56.26L387.935 56.152C388.015 55.776 388.155 55.468 388.355 55.228C388.555 54.98 388.795 54.796 389.075 54.676C389.363 54.556 389.671 54.496 389.999 54.496C390.487 54.496 390.887 54.604 391.199 54.82C391.519 55.036 391.755 55.328 391.907 55.696C392.067 56.056 392.147 56.46 392.147 56.908V61H391.139V57.196C391.139 56.804 391.091 56.476 390.995 56.212C390.907 55.94 390.763 55.736 390.563 55.6C390.363 55.456 390.103 55.384 389.783 55.384C389.295 55.384 388.891 55.54 388.571 55.852C388.259 56.156 388.103 56.604 388.103 57.196V61H387.095ZM395.066 61.144C394.41 61.144 393.886 60.992 393.494 60.688C393.11 60.384 392.918 59.96 392.918 59.416C392.918 58.872 393.078 58.444 393.398 58.132C393.718 57.82 394.226 57.6 394.922 57.472L397.178 57.052C397.178 56.516 397.05 56.116 396.794 55.852C396.546 55.588 396.17 55.456 395.666 55.456C395.226 55.456 394.878 55.556 394.622 55.756C394.366 55.948 394.19 56.228 394.094 56.596L393.026 56.512C393.146 55.912 393.434 55.428 393.89 55.06C394.354 54.684 394.946 54.496 395.666 54.496C396.482 54.496 397.106 54.728 397.538 55.192C397.97 55.648 398.186 56.28 398.186 57.088V59.716C398.186 59.86 398.21 59.964 398.258 60.028C398.314 60.084 398.402 60.112 398.522 60.112H398.774V61C398.742 61.008 398.69 61.012 398.618 61.012C398.546 61.02 398.47 61.024 398.39 61.024C398.102 61.024 397.866 60.98 397.682 60.892C397.506 60.796 397.378 60.652 397.298 60.46C397.218 60.26 397.178 60 397.178 59.68L397.298 59.704C397.242 59.976 397.106 60.224 396.89 60.448C396.674 60.664 396.406 60.836 396.086 60.964C395.766 61.084 395.426 61.144 395.066 61.144ZM395.162 60.256C395.586 60.256 395.946 60.176 396.242 60.016C396.546 59.848 396.778 59.624 396.938 59.344C397.098 59.056 397.178 58.736 397.178 58.384V57.928L395.114 58.312C394.682 58.392 394.382 58.516 394.214 58.684C394.054 58.844 393.974 59.056 393.974 59.32C393.974 59.616 394.078 59.848 394.286 60.016C394.502 60.176 394.794 60.256 395.162 60.256ZM401.701 62.944C401.245 62.944 400.833 62.868 400.465 62.716C400.097 62.564 399.789 62.348 399.541 62.068C399.293 61.788 399.125 61.464 399.037 61.096L400.093 61.024C400.189 61.32 400.357 61.552 400.597 61.72C400.845 61.896 401.213 61.984 401.701 61.984C402.277 61.984 402.717 61.868 403.021 61.636C403.333 61.404 403.489 61.056 403.489 60.592V59.56C403.337 59.896 403.093 60.164 402.757 60.364C402.421 60.564 402.045 60.664 401.629 60.664C401.093 60.664 400.613 60.532 400.189 60.268C399.773 60.004 399.445 59.64 399.205 59.176C398.973 58.712 398.857 58.18 398.857 57.58C398.857 56.972 398.973 56.44 399.205 55.984C399.437 55.52 399.757 55.156 400.165 54.892C400.581 54.628 401.053 54.496 401.581 54.496C402.029 54.496 402.429 54.6 402.781 54.808C403.141 55.016 403.393 55.296 403.537 55.648V54.64H404.497V60.568C404.497 61.064 404.385 61.488 404.161 61.84C403.937 62.2 403.617 62.472 403.201 62.656C402.785 62.848 402.285 62.944 401.701 62.944ZM401.677 59.704C402.221 59.704 402.657 59.516 402.985 59.14C403.313 58.756 403.481 58.236 403.489 57.58C403.497 57.14 403.425 56.764 403.273 56.452C403.129 56.132 402.917 55.888 402.637 55.72C402.365 55.544 402.045 55.456 401.677 55.456C401.117 55.456 400.681 55.648 400.369 56.032C400.065 56.408 399.913 56.924 399.913 57.58C399.913 58.236 400.069 58.756 400.381 59.14C400.701 59.516 401.133 59.704 401.677 59.704ZM408.181 61.144C407.581 61.144 407.061 61.008 406.621 60.736C406.189 60.464 405.853 60.08 405.613 59.584C405.381 59.08 405.265 58.492 405.265 57.82C405.265 57.148 405.381 56.564 405.613 56.068C405.853 55.572 406.185 55.188 406.609 54.916C407.041 54.636 407.549 54.496 408.133 54.496C408.685 54.496 409.173 54.628 409.597 54.892C410.021 55.148 410.349 55.524 410.581 56.02C410.821 56.516 410.941 57.12 410.941 57.832V58.132H406.321C406.361 58.812 406.541 59.324 406.861 59.668C407.189 60.012 407.629 60.184 408.181 60.184C408.597 60.184 408.937 60.088 409.201 59.896C409.473 59.696 409.661 59.436 409.765 59.116L410.845 59.2C410.677 59.768 410.357 60.236 409.885 60.604C409.421 60.964 408.853 61.144 408.181 61.144ZM406.321 57.244H409.837C409.789 56.628 409.609 56.176 409.297 55.888C408.993 55.6 408.605 55.456 408.133 55.456C407.645 55.456 407.241 55.608 406.921 55.912C406.609 56.208 406.409 56.652 406.321 57.244ZM411.706 61V54.64H412.594L412.642 56.248L412.546 56.212C412.626 55.668 412.798 55.272 413.062 55.024C413.334 54.768 413.694 54.64 414.142 54.64H414.766V55.6H414.154C413.834 55.6 413.566 55.66 413.35 55.78C413.142 55.892 412.982 56.064 412.87 56.296C412.766 56.52 412.714 56.808 412.714 57.16V61H411.706ZM415.29 61V54.64H416.298V61H415.29ZM415.266 53.644V52.468H416.322V53.644H415.266ZM419.219 61.144C418.563 61.144 418.039 60.992 417.647 60.688C417.263 60.384 417.071 59.96 417.071 59.416C417.071 58.872 417.231 58.444 417.551 58.132C417.871 57.82 418.379 57.6 419.075 57.472L421.331 57.052C421.331 56.516 421.203 56.116 420.947 55.852C420.699 55.588 420.323 55.456 419.819 55.456C419.379 55.456 419.031 55.556 418.775 55.756C418.519 55.948 418.343 56.228 418.247 56.596L417.179 56.512C417.299 55.912 417.587 55.428 418.043 55.06C418.507 54.684 419.099 54.496 419.819 54.496C420.635 54.496 421.259 54.728 421.691 55.192C422.123 55.648 422.339 56.28 422.339 57.088V59.716C422.339 59.86 422.363 59.964 422.411 60.028C422.467 60.084 422.555 60.112 422.675 60.112H422.927V61C422.895 61.008 422.843 61.012 422.771 61.012C422.699 61.02 422.623 61.024 422.543 61.024C422.255 61.024 422.019 60.98 421.835 60.892C421.659 60.796 421.531 60.652 421.451 60.46C421.371 60.26 421.331 60 421.331 59.68L421.451 59.704C421.395 59.976 421.259 60.224 421.043 60.448C420.827 60.664 420.559 60.836 420.239 60.964C419.919 61.084 419.579 61.144 419.219 61.144ZM419.315 60.256C419.739 60.256 420.099 60.176 420.395 60.016C420.699 59.848 420.931 59.624 421.091 59.344C421.251 59.056 421.331 58.736 421.331 58.384V57.928L419.267 58.312C418.835 58.392 418.535 58.516 418.367 58.684C418.207 58.844 418.127 59.056 418.127 59.32C418.127 59.616 418.231 59.848 418.439 60.016C418.655 60.176 418.947 60.256 419.315 60.256ZM424.643 61C424.275 61 423.975 60.904 423.743 60.712C423.511 60.52 423.395 60.216 423.395 59.8V52.48H424.403V59.716C424.403 59.844 424.435 59.944 424.499 60.016C424.571 60.08 424.671 60.112 424.799 60.112H425.351V61H424.643Z" fill="white"/>
<rect x="-25.5" y="0.5" width="85" height="30" rx="15" fill="#111111" stroke="#FEFEFE"/>
<rect x="80.5" y="0.5" width="71" height="30" rx="15" fill="#111111" stroke="#FEFEFE"/>
<rect x="172.5" y="0.5" width="93" height="30" rx="15" fill="#111111" stroke="#FEFEFE"/>
<rect x="286.5" y="0.5" width="86" height="30" rx="15" fill="#111111" stroke="#FEFEFE"/>
<rect x="393.5" y="0.5" width="66" height="30" rx="15" fill="#111111" stroke="#FEFEFE"/>
<path d="M-0.455827 20.192C-1.21583 20.192 -1.88383 20.016 -2.45983 19.664C-3.03583 19.304 -3.48383 18.792 -3.80383 18.128C-4.12383 17.464 -4.28383 16.672 -4.28383 15.752C-4.28383 14.832 -4.12383 14.04 -3.80383 13.376C-3.48383 12.704 -3.03583 12.188 -2.45983 11.828C-1.88383 11.468 -1.21583 11.288 -0.455827 11.288C0.576173 11.288 1.37617 11.548 1.94417 12.068C2.51217 12.588 2.88417 13.296 3.06017 14.192L1.96817 14.264C1.84817 13.656 1.59217 13.176 1.20017 12.824C0.808172 12.472 0.256172 12.296 -0.455827 12.296C-0.999828 12.296 -1.47983 12.436 -1.89583 12.716C-2.30383 12.988 -2.62383 13.384 -2.85583 13.904C-3.08783 14.416 -3.20383 15.032 -3.20383 15.752C-3.20383 16.472 -3.08783 17.088 -2.85583 17.6C-2.62383 18.112 -2.30383 18.504 -1.89583 18.776C-1.47983 19.048 -0.999828 19.184 -0.455827 19.184C0.288172 19.184 0.864172 18.992 1.27217 18.608C1.68017 18.216 1.93617 17.688 2.04017 17.024L3.13217 17.096C3.02817 17.712 2.82417 18.252 2.52017 18.716C2.21617 19.18 1.81217 19.544 1.30817 19.808C0.812173 20.064 0.224173 20.192 -0.455827 20.192ZM6.36392 20.144C5.77992 20.144 5.26792 20.008 4.82792 19.736C4.38792 19.464 4.04792 19.08 3.80792 18.584C3.56792 18.08 3.44792 17.492 3.44792 16.82C3.44792 16.14 3.56792 15.552 3.80792 15.056C4.04792 14.56 4.38792 14.176 4.82792 13.904C5.26792 13.632 5.77992 13.496 6.36392 13.496C6.94792 13.496 7.45592 13.632 7.88792 13.904C8.32792 14.176 8.66792 14.56 8.90792 15.056C9.14792 15.552 9.26792 16.14 9.26792 16.82C9.26792 17.492 9.14792 18.08 8.90792 18.584C8.66792 19.08 8.32792 19.464 7.88792 19.736C7.45592 20.008 6.94792 20.144 6.36392 20.144ZM6.36392 19.184C6.94792 19.184 7.39992 18.976 7.71992 18.56C8.04792 18.136 8.21192 17.556 8.21192 16.82C8.21192 16.084 8.04792 15.508 7.71992 15.092C7.39992 14.668 6.94792 14.456 6.36392 14.456C5.77992 14.456 5.32392 14.668 4.99592 15.092C4.66792 15.508 4.50392 16.084 4.50392 16.82C4.50392 17.556 4.66792 18.136 4.99592 18.56C5.32392 18.976 5.77992 19.184 6.36392 19.184ZM10.0416 20V13.64H10.9656L11.0016 15.26L10.8816 15.152C10.9616 14.776 11.1016 14.468 11.3016 14.228C11.5016 13.98 11.7416 13.796 12.0216 13.676C12.3096 13.556 12.6176 13.496 12.9456 13.496C13.4336 13.496 13.8336 13.604 14.1456 13.82C14.4656 14.036 14.7016 14.328 14.8536 14.696C15.0136 15.056 15.0936 15.46 15.0936 15.908V20H14.0856V16.196C14.0856 15.804 14.0376 15.476 13.9416 15.212C13.8536 14.94 13.7096 14.736 13.5096 14.6C13.3096 14.456 13.0496 14.384 12.7296 14.384C12.2416 14.384 11.8376 14.54 11.5176 14.852C11.2056 15.156 11.0496 15.604 11.0496 16.196V20H10.0416ZM18.2618 20C17.6858 20 17.2578 19.868 16.9778 19.604C16.7058 19.34 16.5698 18.928 16.5698 18.368V12.152H17.5778V18.344C17.5778 18.632 17.6418 18.832 17.7698 18.944C17.8978 19.056 18.0938 19.112 18.3578 19.112H19.2698V20H18.2618ZM15.6338 14.528V13.64H19.2698V14.528H15.6338ZM20.0916 20V13.64H20.9796L21.0276 15.248L20.9316 15.212C21.0116 14.668 21.1836 14.272 21.4476 14.024C21.7196 13.768 22.0796 13.64 22.5276 13.64H23.1516V14.6H22.5396C22.2196 14.6 21.9516 14.66 21.7356 14.78C21.5276 14.892 21.3676 15.064 21.2556 15.296C21.1516 15.52 21.0996 15.808 21.0996 16.16V20H20.0916ZM25.274 20.144C24.618 20.144 24.094 19.992 23.702 19.688C23.318 19.384 23.126 18.96 23.126 18.416C23.126 17.872 23.286 17.444 23.606 17.132C23.926 16.82 24.434 16.6 25.13 16.472L27.386 16.052C27.386 15.516 27.258 15.116 27.002 14.852C26.754 14.588 26.378 14.456 25.874 14.456C25.434 14.456 25.086 14.556 24.83 14.756C24.574 14.948 24.398 15.228 24.302 15.596L23.234 15.512C23.354 14.912 23.642 14.428 24.098 14.06C24.562 13.684 25.154 13.496 25.874 13.496C26.69 13.496 27.314 13.728 27.746 14.192C28.178 14.648 28.394 15.28 28.394 16.088V18.716C28.394 18.86 28.418 18.964 28.466 19.028C28.522 19.084 28.61 19.112 28.73 19.112H28.982V20C28.95 20.008 28.898 20.012 28.826 20.012C28.754 20.02 28.678 20.024 28.598 20.024C28.31 20.024 28.074 19.98 27.89 19.892C27.714 19.796 27.586 19.652 27.506 19.46C27.426 19.26 27.386 19 27.386 18.68L27.506 18.704C27.45 18.976 27.314 19.224 27.098 19.448C26.882 19.664 26.614 19.836 26.294 19.964C25.974 20.084 25.634 20.144 25.274 20.144ZM25.37 19.256C25.794 19.256 26.154 19.176 26.45 19.016C26.754 18.848 26.986 18.624 27.146 18.344C27.306 18.056 27.386 17.736 27.386 17.384V16.928L25.322 17.312C24.89 17.392 24.59 17.516 24.422 17.684C24.262 17.844 24.182 18.056 24.182 18.32C24.182 18.616 24.286 18.848 24.494 19.016C24.71 19.176 25.002 19.256 25.37 19.256ZM31.9811 20.144C31.3891 20.144 30.8731 20.008 30.4331 19.736C30.0011 19.464 29.6651 19.08 29.4251 18.584C29.1851 18.08 29.0651 17.492 29.0651 16.82C29.0651 16.148 29.1851 15.564 29.4251 15.068C29.6651 14.572 30.0011 14.188 30.4331 13.916C30.8731 13.636 31.3891 13.496 31.9811 13.496C32.4691 13.496 32.9011 13.584 33.2771 13.76C33.6611 13.928 33.9731 14.176 34.2131 14.504C34.4531 14.832 34.6091 15.232 34.6811 15.704L33.6251 15.776C33.5531 15.352 33.3691 15.028 33.0731 14.804C32.7771 14.572 32.4131 14.456 31.9811 14.456C31.3971 14.456 30.9411 14.668 30.6131 15.092C30.2851 15.508 30.1211 16.084 30.1211 16.82C30.1211 17.556 30.2851 18.136 30.6131 18.56C30.9411 18.976 31.3971 19.184 31.9811 19.184C32.4131 19.184 32.7771 19.064 33.0731 18.824C33.3691 18.584 33.5531 18.224 33.6251 17.744L34.6811 17.816C34.6091 18.288 34.4531 18.7 34.2131 19.052C33.9731 19.396 33.6611 19.664 33.2771 19.856C32.9011 20.048 32.4691 20.144 31.9811 20.144ZM37.4126 20C36.8366 20 36.4086 19.868 36.1286 19.604C35.8566 19.34 35.7206 18.928 35.7206 18.368V12.152H36.7286V18.344C36.7286 18.632 36.7926 18.832 36.9206 18.944C37.0486 19.056 37.2446 19.112 37.5086 19.112H38.4206V20H37.4126ZM34.7846 14.528V13.64H38.4206V14.528H34.7846Z" fill="white"/>
<path d="M101.26 20.192C100.604 20.192 100.032 20.068 99.5437 19.82C99.0557 19.572 98.6677 19.232 98.3797 18.8C98.0997 18.36 97.9357 17.852 97.8877 17.276L98.9677 17.204C99.0237 17.628 99.1477 17.988 99.3397 18.284C99.5317 18.58 99.7877 18.804 100.108 18.956C100.436 19.108 100.828 19.184 101.284 19.184C101.684 19.184 102.024 19.132 102.304 19.028C102.584 18.924 102.796 18.772 102.94 18.572C103.092 18.372 103.168 18.128 103.168 17.84C103.168 17.576 103.104 17.344 102.976 17.144C102.856 16.936 102.62 16.748 102.268 16.58C101.924 16.404 101.412 16.232 100.732 16.064C100.076 15.896 99.5517 15.712 99.1597 15.512C98.7757 15.312 98.4957 15.068 98.3197 14.78C98.1517 14.492 98.0677 14.136 98.0677 13.712C98.0677 13.232 98.1797 12.812 98.4037 12.452C98.6357 12.084 98.9637 11.8 99.3877 11.6C99.8117 11.392 100.316 11.288 100.9 11.288C101.524 11.288 102.06 11.408 102.508 11.648C102.956 11.88 103.312 12.2 103.576 12.608C103.84 13.016 104.004 13.48 104.068 14L102.988 14.072C102.94 13.728 102.828 13.424 102.652 13.16C102.484 12.888 102.252 12.676 101.956 12.524C101.66 12.372 101.3 12.296 100.876 12.296C100.348 12.296 99.9277 12.424 99.6157 12.68C99.3037 12.928 99.1477 13.256 99.1477 13.664C99.1477 13.928 99.2077 14.148 99.3277 14.324C99.4557 14.492 99.6797 14.644 99.9997 14.78C100.32 14.908 100.78 15.048 101.38 15.2C102.092 15.376 102.656 15.588 103.072 15.836C103.496 16.076 103.796 16.356 103.972 16.676C104.156 16.996 104.248 17.36 104.248 17.768C104.248 18.264 104.12 18.696 103.864 19.064C103.608 19.424 103.256 19.704 102.808 19.904C102.36 20.096 101.844 20.192 101.26 20.192ZM107.299 20C106.723 20 106.295 19.868 106.015 19.604C105.743 19.34 105.607 18.928 105.607 18.368V12.152H106.615V18.344C106.615 18.632 106.679 18.832 106.807 18.944C106.935 19.056 107.131 19.112 107.395 19.112H108.307V20H107.299ZM104.671 14.528V13.64H108.307V14.528H104.671ZM110.669 20.144C110.013 20.144 109.489 19.992 109.097 19.688C108.713 19.384 108.521 18.96 108.521 18.416C108.521 17.872 108.681 17.444 109.001 17.132C109.321 16.82 109.829 16.6 110.525 16.472L112.781 16.052C112.781 15.516 112.653 15.116 112.397 14.852C112.149 14.588 111.773 14.456 111.269 14.456C110.829 14.456 110.481 14.556 110.225 14.756C109.969 14.948 109.793 15.228 109.697 15.596L108.629 15.512C108.749 14.912 109.037 14.428 109.493 14.06C109.957 13.684 110.549 13.496 111.269 13.496C112.085 13.496 112.709 13.728 113.141 14.192C113.573 14.648 113.789 15.28 113.789 16.088V18.716C113.789 18.86 113.813 18.964 113.861 19.028C113.917 19.084 114.005 19.112 114.125 19.112H114.377V20C114.345 20.008 114.293 20.012 114.221 20.012C114.149 20.02 114.073 20.024 113.993 20.024C113.705 20.024 113.469 19.98 113.285 19.892C113.109 19.796 112.981 19.652 112.901 19.46C112.821 19.26 112.781 19 112.781 18.68L112.901 18.704C112.845 18.976 112.709 19.224 112.493 19.448C112.277 19.664 112.009 19.836 111.689 19.964C111.369 20.084 111.029 20.144 110.669 20.144ZM110.765 19.256C111.189 19.256 111.549 19.176 111.845 19.016C112.149 18.848 112.381 18.624 112.541 18.344C112.701 18.056 112.781 17.736 112.781 17.384V16.928L110.717 17.312C110.285 17.392 109.985 17.516 109.817 17.684C109.657 17.844 109.577 18.056 109.577 18.32C109.577 18.616 109.681 18.848 109.889 19.016C110.105 19.176 110.397 19.256 110.765 19.256ZM114.915 20V13.64H115.803L115.851 15.248L115.755 15.212C115.835 14.668 116.007 14.272 116.271 14.024C116.543 13.768 116.903 13.64 117.351 13.64H117.975V14.6H117.363C117.043 14.6 116.775 14.66 116.559 14.78C116.351 14.892 116.191 15.064 116.079 15.296C115.975 15.52 115.923 15.808 115.923 16.16V20H114.915ZM120.592 20C120.016 20 119.588 19.868 119.308 19.604C119.036 19.34 118.9 18.928 118.9 18.368V12.152H119.908V18.344C119.908 18.632 119.972 18.832 120.1 18.944C120.228 19.056 120.424 19.112 120.688 19.112H121.6V20H120.592ZM117.964 14.528V13.64H121.6V14.528H117.964ZM124.381 20.144C123.749 20.144 123.241 19.932 122.857 19.508C122.481 19.076 122.293 18.484 122.293 17.732V13.64H123.301V17.456C123.301 18.072 123.409 18.528 123.625 18.824C123.849 19.112 124.189 19.256 124.645 19.256C125.149 19.256 125.545 19.096 125.833 18.776C126.121 18.448 126.265 18 126.265 17.432V13.64H127.273V20H126.313V18.428L126.469 18.512C126.341 19.032 126.097 19.436 125.737 19.724C125.377 20.004 124.925 20.144 124.381 20.144ZM128.596 21.8V13.64H129.532L129.556 15.008L129.412 14.936C129.572 14.464 129.836 14.108 130.204 13.868C130.58 13.62 131.012 13.496 131.5 13.496C132.132 13.496 132.648 13.652 133.048 13.964C133.456 14.276 133.756 14.684 133.948 15.188C134.148 15.692 134.248 16.236 134.248 16.82C134.248 17.404 134.148 17.948 133.948 18.452C133.756 18.956 133.456 19.364 133.048 19.676C132.648 19.988 132.132 20.144 131.5 20.144C131.172 20.144 130.864 20.088 130.576 19.976C130.296 19.864 130.056 19.708 129.856 19.508C129.664 19.308 129.532 19.072 129.46 18.8L129.604 18.632V21.8H128.596ZM131.404 19.184C131.956 19.184 132.392 18.976 132.712 18.56C133.032 18.144 133.192 17.564 133.192 16.82C133.192 16.076 133.032 15.496 132.712 15.08C132.392 14.664 131.956 14.456 131.404 14.456C131.036 14.456 130.716 14.544 130.444 14.72C130.18 14.896 129.972 15.16 129.82 15.512C129.676 15.864 129.604 16.3 129.604 16.82C129.604 17.34 129.676 17.776 129.82 18.128C129.964 18.48 130.172 18.744 130.444 18.92C130.716 19.096 131.036 19.184 131.404 19.184Z" fill="white"/>
<path d="M190.456 20V11.48H195.808V12.488H191.488V15.236H195.664V16.22H191.488V18.992H195.904V20H190.456ZM196.942 20V13.64H197.866L197.902 15.26L197.782 15.152C197.862 14.776 198.002 14.468 198.202 14.228C198.402 13.98 198.642 13.796 198.922 13.676C199.21 13.556 199.518 13.496 199.846 13.496C200.334 13.496 200.734 13.604 201.046 13.82C201.366 14.036 201.602 14.328 201.754 14.696C201.914 15.056 201.994 15.46 201.994 15.908V20H200.986V16.196C200.986 15.804 200.938 15.476 200.842 15.212C200.754 14.94 200.61 14.736 200.41 14.6C200.21 14.456 199.95 14.384 199.63 14.384C199.142 14.384 198.738 14.54 198.418 14.852C198.106 15.156 197.95 15.604 197.95 16.196V20H196.942ZM205.586 21.944C205.13 21.944 204.718 21.868 204.35 21.716C203.982 21.564 203.674 21.348 203.426 21.068C203.178 20.788 203.01 20.464 202.922 20.096L203.978 20.024C204.074 20.32 204.242 20.552 204.482 20.72C204.73 20.896 205.098 20.984 205.586 20.984C206.162 20.984 206.602 20.868 206.906 20.636C207.218 20.404 207.374 20.056 207.374 19.592V18.56C207.222 18.896 206.978 19.164 206.642 19.364C206.306 19.564 205.93 19.664 205.514 19.664C204.978 19.664 204.498 19.532 204.074 19.268C203.658 19.004 203.33 18.64 203.09 18.176C202.858 17.712 202.742 17.18 202.742 16.58C202.742 15.972 202.858 15.44 203.09 14.984C203.322 14.52 203.642 14.156 204.05 13.892C204.466 13.628 204.938 13.496 205.466 13.496C205.914 13.496 206.314 13.6 206.666 13.808C207.026 14.016 207.278 14.296 207.422 14.648V13.64H208.382V19.568C208.382 20.064 208.27 20.488 208.046 20.84C207.822 21.2 207.502 21.472 207.086 21.656C206.67 21.848 206.17 21.944 205.586 21.944ZM205.562 18.704C206.106 18.704 206.542 18.516 206.87 18.14C207.198 17.756 207.366 17.236 207.374 16.58C207.382 16.14 207.31 15.764 207.158 15.452C207.014 15.132 206.802 14.888 206.522 14.72C206.25 14.544 205.93 14.456 205.562 14.456C205.002 14.456 204.566 14.648 204.254 15.032C203.95 15.408 203.798 15.924 203.798 16.58C203.798 17.236 203.954 17.756 204.266 18.14C204.586 18.516 205.018 18.704 205.562 18.704ZM209.523 20V13.64H210.531V20H209.523ZM209.499 12.644V11.468H210.555V12.644H209.499ZM211.97 20V13.64H212.894L212.93 15.26L212.81 15.152C212.89 14.776 213.03 14.468 213.23 14.228C213.43 13.98 213.67 13.796 213.95 13.676C214.238 13.556 214.546 13.496 214.874 13.496C215.362 13.496 215.762 13.604 216.074 13.82C216.394 14.036 216.63 14.328 216.782 14.696C216.942 15.056 217.022 15.46 217.022 15.908V20H216.014V16.196C216.014 15.804 215.966 15.476 215.87 15.212C215.782 14.94 215.638 14.736 215.438 14.6C215.238 14.456 214.978 14.384 214.658 14.384C214.17 14.384 213.766 14.54 213.446 14.852C213.134 15.156 212.978 15.604 212.978 16.196V20H211.97ZM220.686 20.144C220.086 20.144 219.566 20.008 219.126 19.736C218.694 19.464 218.358 19.08 218.118 18.584C217.886 18.08 217.77 17.492 217.77 16.82C217.77 16.148 217.886 15.564 218.118 15.068C218.358 14.572 218.69 14.188 219.114 13.916C219.546 13.636 220.054 13.496 220.638 13.496C221.19 13.496 221.678 13.628 222.102 13.892C222.526 14.148 222.854 14.524 223.086 15.02C223.326 15.516 223.446 16.12 223.446 16.832V17.132H218.826C218.866 17.812 219.046 18.324 219.366 18.668C219.694 19.012 220.134 19.184 220.686 19.184C221.102 19.184 221.442 19.088 221.706 18.896C221.978 18.696 222.166 18.436 222.27 18.116L223.35 18.2C223.182 18.768 222.862 19.236 222.39 19.604C221.926 19.964 221.358 20.144 220.686 20.144ZM218.826 16.244H222.342C222.294 15.628 222.114 15.176 221.802 14.888C221.498 14.6 221.11 14.456 220.638 14.456C220.15 14.456 219.746 14.608 219.426 14.912C219.114 15.208 218.914 15.652 218.826 16.244ZM226.696 20.144C226.096 20.144 225.576 20.008 225.136 19.736C224.704 19.464 224.368 19.08 224.128 18.584C223.896 18.08 223.78 17.492 223.78 16.82C223.78 16.148 223.896 15.564 224.128 15.068C224.368 14.572 224.7 14.188 225.124 13.916C225.556 13.636 226.064 13.496 226.648 13.496C227.2 13.496 227.688 13.628 228.112 13.892C228.536 14.148 228.864 14.524 229.096 15.02C229.336 15.516 229.456 16.12 229.456 16.832V17.132H224.836C224.876 17.812 225.056 18.324 225.376 18.668C225.704 19.012 226.144 19.184 226.696 19.184C227.112 19.184 227.452 19.088 227.716 18.896C227.988 18.696 228.176 18.436 228.28 18.116L229.36 18.2C229.192 18.768 228.872 19.236 228.4 19.604C227.936 19.964 227.368 20.144 226.696 20.144ZM224.836 16.244H228.352C228.304 15.628 228.124 15.176 227.812 14.888C227.508 14.6 227.12 14.456 226.648 14.456C226.16 14.456 225.756 14.608 225.436 14.912C225.124 15.208 224.924 15.652 224.836 16.244ZM230.221 20V13.64H231.109L231.157 15.248L231.061 15.212C231.141 14.668 231.313 14.272 231.577 14.024C231.849 13.768 232.209 13.64 232.657 13.64H233.281V14.6H232.669C232.349 14.6 232.081 14.66 231.865 14.78C231.657 14.892 231.497 15.064 231.385 15.296C231.281 15.52 231.229 15.808 231.229 16.16V20H230.221ZM233.805 20V13.64H234.813V20H233.805ZM233.781 12.644V11.468H234.837V12.644H233.781ZM236.251 20V13.64H237.175L237.211 15.26L237.091 15.152C237.171 14.776 237.311 14.468 237.511 14.228C237.711 13.98 237.951 13.796 238.231 13.676C238.519 13.556 238.827 13.496 239.155 13.496C239.643 13.496 240.043 13.604 240.355 13.82C240.675 14.036 240.911 14.328 241.063 14.696C241.223 15.056 241.303 15.46 241.303 15.908V20H240.295V16.196C240.295 15.804 240.247 15.476 240.151 15.212C240.063 14.94 239.919 14.736 239.719 14.6C239.519 14.456 239.259 14.384 238.939 14.384C238.451 14.384 238.047 14.54 237.727 14.852C237.415 15.156 237.259 15.604 237.259 16.196V20H236.251ZM244.895 21.944C244.439 21.944 244.027 21.868 243.659 21.716C243.291 21.564 242.983 21.348 242.735 21.068C242.487 20.788 242.319 20.464 242.231 20.096L243.287 20.024C243.383 20.32 243.551 20.552 243.791 20.72C244.039 20.896 244.407 20.984 244.895 20.984C245.471 20.984 245.911 20.868 246.215 20.636C246.527 20.404 246.683 20.056 246.683 19.592V18.56C246.531 18.896 246.287 19.164 245.951 19.364C245.615 19.564 245.239 19.664 244.823 19.664C244.287 19.664 243.807 19.532 243.383 19.268C242.967 19.004 242.639 18.64 242.399 18.176C242.167 17.712 242.051 17.18 242.051 16.58C242.051 15.972 242.167 15.44 242.399 14.984C242.631 14.52 242.951 14.156 243.359 13.892C243.775 13.628 244.247 13.496 244.775 13.496C245.223 13.496 245.623 13.6 245.975 13.808C246.335 14.016 246.587 14.296 246.731 14.648V13.64H247.691V19.568C247.691 20.064 247.579 20.488 247.355 20.84C247.131 21.2 246.811 21.472 246.395 21.656C245.979 21.848 245.479 21.944 244.895 21.944ZM244.871 18.704C245.415 18.704 245.851 18.516 246.179 18.14C246.507 17.756 246.675 17.236 246.683 16.58C246.691 16.14 246.619 15.764 246.467 15.452C246.323 15.132 246.111 14.888 245.831 14.72C245.559 14.544 245.239 14.456 244.871 14.456C244.311 14.456 243.875 14.648 243.563 15.032C243.259 15.408 243.107 15.924 243.107 16.58C243.107 17.236 243.263 17.756 243.575 18.14C243.895 18.516 244.327 18.704 244.871 18.704Z" fill="white"/>
<path d="M304.318 20V11.48H305.758L308.482 18.872L311.194 11.48H312.634V20H311.602V13.4L309.166 20H307.786L305.35 13.4V20H304.318ZM313.863 20V13.64H314.871V20H313.863ZM313.839 12.644V11.468H314.895V12.644H313.839ZM318.331 20.144C317.779 20.144 317.299 20.008 316.891 19.736C316.491 19.464 316.183 19.08 315.967 18.584C315.751 18.088 315.643 17.5 315.643 16.82C315.643 16.14 315.751 15.552 315.967 15.056C316.183 14.56 316.491 14.176 316.891 13.904C317.299 13.632 317.779 13.496 318.331 13.496C318.755 13.496 319.143 13.588 319.495 13.772C319.847 13.948 320.111 14.2 320.287 14.528V11.48H321.295V20H320.383L320.347 19.04C320.171 19.384 319.903 19.656 319.543 19.856C319.183 20.048 318.779 20.144 318.331 20.144ZM318.535 19.184C318.911 19.184 319.227 19.088 319.483 18.896C319.747 18.704 319.947 18.432 320.083 18.08C320.219 17.72 320.287 17.3 320.287 16.82C320.287 16.324 320.219 15.9 320.083 15.548C319.947 15.196 319.747 14.928 319.483 14.744C319.227 14.552 318.911 14.456 318.535 14.456C317.975 14.456 317.527 14.668 317.191 15.092C316.863 15.508 316.699 16.084 316.699 16.82C316.699 17.548 316.863 18.124 317.191 18.548C317.527 18.972 317.975 19.184 318.535 19.184ZM328.084 20.192C327.428 20.192 326.856 20.068 326.368 19.82C325.88 19.572 325.492 19.232 325.204 18.8C324.924 18.36 324.76 17.852 324.712 17.276L325.792 17.204C325.848 17.628 325.972 17.988 326.164 18.284C326.356 18.58 326.612 18.804 326.932 18.956C327.26 19.108 327.652 19.184 328.108 19.184C328.508 19.184 328.848 19.132 329.128 19.028C329.408 18.924 329.62 18.772 329.764 18.572C329.916 18.372 329.992 18.128 329.992 17.84C329.992 17.576 329.928 17.344 329.8 17.144C329.68 16.936 329.444 16.748 329.092 16.58C328.748 16.404 328.236 16.232 327.556 16.064C326.9 15.896 326.376 15.712 325.984 15.512C325.6 15.312 325.32 15.068 325.144 14.78C324.976 14.492 324.892 14.136 324.892 13.712C324.892 13.232 325.004 12.812 325.228 12.452C325.46 12.084 325.788 11.8 326.212 11.6C326.636 11.392 327.14 11.288 327.724 11.288C328.348 11.288 328.884 11.408 329.332 11.648C329.78 11.88 330.136 12.2 330.4 12.608C330.664 13.016 330.828 13.48 330.892 14L329.812 14.072C329.764 13.728 329.652 13.424 329.476 13.16C329.308 12.888 329.076 12.676 328.78 12.524C328.484 12.372 328.124 12.296 327.7 12.296C327.172 12.296 326.752 12.424 326.44 12.68C326.128 12.928 325.972 13.256 325.972 13.664C325.972 13.928 326.032 14.148 326.152 14.324C326.28 14.492 326.504 14.644 326.824 14.78C327.144 14.908 327.604 15.048 328.204 15.2C328.916 15.376 329.48 15.588 329.896 15.836C330.32 16.076 330.62 16.356 330.796 16.676C330.98 16.996 331.072 17.36 331.072 17.768C331.072 18.264 330.944 18.696 330.688 19.064C330.432 19.424 330.08 19.704 329.632 19.904C329.184 20.096 328.668 20.192 328.084 20.192ZM333.921 20.144C333.265 20.144 332.741 19.992 332.349 19.688C331.965 19.384 331.773 18.96 331.773 18.416C331.773 17.872 331.933 17.444 332.253 17.132C332.573 16.82 333.081 16.6 333.777 16.472L336.033 16.052C336.033 15.516 335.905 15.116 335.649 14.852C335.401 14.588 335.025 14.456 334.521 14.456C334.081 14.456 333.733 14.556 333.477 14.756C333.221 14.948 333.045 15.228 332.949 15.596L331.881 15.512C332.001 14.912 332.289 14.428 332.745 14.06C333.209 13.684 333.801 13.496 334.521 13.496C335.337 13.496 335.961 13.728 336.393 14.192C336.825 14.648 337.041 15.28 337.041 16.088V18.716C337.041 18.86 337.065 18.964 337.113 19.028C337.169 19.084 337.257 19.112 337.377 19.112H337.629V20C337.597 20.008 337.545 20.012 337.473 20.012C337.401 20.02 337.325 20.024 337.245 20.024C336.957 20.024 336.721 19.98 336.537 19.892C336.361 19.796 336.233 19.652 336.153 19.46C336.073 19.26 336.033 19 336.033 18.68L336.153 18.704C336.097 18.976 335.961 19.224 335.745 19.448C335.529 19.664 335.261 19.836 334.941 19.964C334.621 20.084 334.281 20.144 333.921 20.144ZM334.017 19.256C334.441 19.256 334.801 19.176 335.097 19.016C335.401 18.848 335.633 18.624 335.793 18.344C335.953 18.056 336.033 17.736 336.033 17.384V16.928L333.969 17.312C333.537 17.392 333.237 17.516 333.069 17.684C332.909 17.844 332.829 18.056 332.829 18.32C332.829 18.616 332.933 18.848 333.141 19.016C333.357 19.176 333.649 19.256 334.017 19.256ZM339.345 20C338.977 20 338.677 19.904 338.445 19.712C338.213 19.52 338.097 19.216 338.097 18.8V11.48H339.105V18.716C339.105 18.844 339.137 18.944 339.201 19.016C339.273 19.08 339.373 19.112 339.501 19.112H340.053V20H339.345ZM342.412 20.144C341.756 20.144 341.232 19.992 340.84 19.688C340.456 19.384 340.264 18.96 340.264 18.416C340.264 17.872 340.424 17.444 340.744 17.132C341.064 16.82 341.572 16.6 342.268 16.472L344.524 16.052C344.524 15.516 344.396 15.116 344.14 14.852C343.892 14.588 343.516 14.456 343.012 14.456C342.572 14.456 342.224 14.556 341.968 14.756C341.712 14.948 341.536 15.228 341.44 15.596L340.372 15.512C340.492 14.912 340.78 14.428 341.236 14.06C341.7 13.684 342.292 13.496 343.012 13.496C343.828 13.496 344.452 13.728 344.884 14.192C345.316 14.648 345.532 15.28 345.532 16.088V18.716C345.532 18.86 345.556 18.964 345.604 19.028C345.66 19.084 345.748 19.112 345.868 19.112H346.12V20C346.088 20.008 346.036 20.012 345.964 20.012C345.892 20.02 345.816 20.024 345.736 20.024C345.448 20.024 345.212 19.98 345.028 19.892C344.852 19.796 344.724 19.652 344.644 19.46C344.564 19.26 344.524 19 344.524 18.68L344.644 18.704C344.588 18.976 344.452 19.224 344.236 19.448C344.02 19.664 343.752 19.836 343.432 19.964C343.112 20.084 342.772 20.144 342.412 20.144ZM342.508 19.256C342.932 19.256 343.292 19.176 343.588 19.016C343.892 18.848 344.124 18.624 344.284 18.344C344.444 18.056 344.524 17.736 344.524 17.384V16.928L342.46 17.312C342.028 17.392 341.728 17.516 341.56 17.684C341.4 17.844 341.32 18.056 341.32 18.32C341.32 18.616 341.424 18.848 341.632 19.016C341.848 19.176 342.14 19.256 342.508 19.256ZM346.659 20V13.64H347.547L347.595 15.248L347.499 15.212C347.579 14.668 347.751 14.272 348.015 14.024C348.287 13.768 348.647 13.64 349.095 13.64H349.719V14.6H349.107C348.787 14.6 348.519 14.66 348.303 14.78C348.095 14.892 347.935 15.064 347.823 15.296C347.719 15.52 347.667 15.808 347.667 16.16V20H346.659ZM350.577 21.8V20.912H351.309C351.533 20.912 351.697 20.876 351.801 20.804C351.913 20.74 351.997 20.632 352.053 20.48L352.281 19.88H351.933L349.605 13.64H350.709L352.605 18.944L354.417 13.64H355.521L352.941 20.804C352.821 21.148 352.641 21.4 352.401 21.56C352.161 21.72 351.829 21.8 351.405 21.8H350.577Z" fill="white"/>
<path d="M411.145 20V11.48H412.177V15.62L411.649 15.212H416.989L416.461 15.62V11.48H417.493V20H416.461V15.812L416.989 16.22H411.649L412.177 15.812V20H411.145ZM419.115 21.8V20.912H419.847C420.071 20.912 420.235 20.876 420.339 20.804C420.451 20.74 420.535 20.632 420.591 20.48L420.819 19.88H420.471L418.143 13.64H419.247L421.143 18.944L422.955 13.64H424.059L421.479 20.804C421.359 21.148 421.179 21.4 420.939 21.56C420.699 21.72 420.367 21.8 419.943 21.8H419.115ZM427.483 20.144C427.043 20.144 426.651 20.048 426.307 19.856C425.963 19.656 425.699 19.384 425.515 19.04L425.479 20H424.567V11.48H425.575V14.528C425.735 14.264 425.983 14.028 426.319 13.82C426.655 13.604 427.043 13.496 427.483 13.496C428.043 13.496 428.527 13.632 428.935 13.904C429.343 14.176 429.659 14.56 429.883 15.056C430.107 15.552 430.219 16.14 430.219 16.82C430.219 17.5 430.107 18.088 429.883 18.584C429.659 19.08 429.343 19.464 428.935 19.736C428.527 20.008 428.043 20.144 427.483 20.144ZM427.423 19.184C427.959 19.184 428.383 18.972 428.695 18.548C429.007 18.124 429.163 17.548 429.163 16.82C429.163 16.084 429.007 15.508 428.695 15.092C428.383 14.668 427.967 14.456 427.447 14.456C427.055 14.456 426.719 14.552 426.439 14.744C426.159 14.928 425.943 15.196 425.791 15.548C425.647 15.9 425.575 16.324 425.575 16.82C425.575 17.3 425.647 17.72 425.791 18.08C425.943 18.432 426.155 18.704 426.427 18.896C426.707 19.088 427.039 19.184 427.423 19.184ZM430.986 20V13.64H431.874L431.922 15.248L431.826 15.212C431.906 14.668 432.078 14.272 432.342 14.024C432.614 13.768 432.974 13.64 433.422 13.64H434.046V14.6H433.434C433.114 14.6 432.846 14.66 432.63 14.78C432.422 14.892 432.262 15.064 432.15 15.296C432.046 15.52 431.994 15.808 431.994 16.16V20H430.986ZM434.57 20V13.64H435.578V20H434.57ZM434.546 12.644V11.468H435.602V12.644H434.546ZM439.038 20.144C438.486 20.144 438.006 20.008 437.598 19.736C437.198 19.464 436.89 19.08 436.674 18.584C436.458 18.088 436.35 17.5 436.35 16.82C436.35 16.14 436.458 15.552 436.674 15.056C436.89 14.56 437.198 14.176 437.598 13.904C438.006 13.632 438.486 13.496 439.038 13.496C439.462 13.496 439.85 13.588 440.202 13.772C440.554 13.948 440.818 14.2 440.994 14.528V11.48H442.002V20H441.09L441.054 19.04C440.878 19.384 440.61 19.656 440.25 19.856C439.89 20.048 439.486 20.144 439.038 20.144ZM439.242 19.184C439.618 19.184 439.934 19.088 440.19 18.896C440.454 18.704 440.654 18.432 440.79 18.08C440.926 17.72 440.994 17.3 440.994 16.82C440.994 16.324 440.926 15.9 440.79 15.548C440.654 15.196 440.454 14.928 440.19 14.744C439.934 14.552 439.618 14.456 439.242 14.456C438.682 14.456 438.234 14.668 437.898 15.092C437.57 15.508 437.406 16.084 437.406 16.82C437.406 17.548 437.57 18.124 437.898 18.548C438.234 18.972 438.682 19.184 439.242 19.184Z" fill="white"/>
</svg>
