<svg width="300" height="42" viewBox="0 0 300 42" fill="none" xmlns="http://www.w3.org/2000/svg">
<path d="M43.5714 22.7019C42.0579 21.9625 37.2526 19.3861 33.3625 16.9921C29.1282 14.3864 22.8311 11.1293 22.8311 11.1293L21.094 10.3693C16.8716 8.25869 13.2085 8.00898 11.999 7.984C11.9024 7.98183 11.8209 7.98075 11.7569 7.98075C10.7656 7.98075 7.84506 8.30863 5.79089 9.25863C7.97643 8.09475 12.4691 5.64973 14.7295 4.22636C17.661 2.38066 22.1124 -0.00790405 26.2381 -0.00790405C27.998 -0.00790405 29.9382 0.351466 31.6026 0.783578C33.2409 1.20918 34.8304 1.80415 36.3515 2.55003C39.6249 4.15579 45.0132 6.60733 47.8437 7.21207C50.7621 7.83418 53.0996 9.20109 54.1528 9.99908C54.2906 10.1033 54.4166 10.2238 54.5251 10.3574L54.5208 10.3606C57.0082 14.5634 48.3703 20.2775 43.5714 22.7019Z" fill="#FEFEFE"/>
<path d="M13.6855 28.4156C13.5867 28.395 13.5356 28.383 13.5356 28.383C13.4694 28.3678 13.3977 28.3515 13.3228 28.3342C12.0526 28.0421 9.63577 27.4819 8.69228 27.154C7.17229 26.1964 5.32224 24.9196 3.59162 23.4268C2.44185 22.4355 1.48426 21.2358 0.819805 19.87C0.258493 18.7148 -0.0856772 17.4825 0.0185509 15.3545C0.148836 12.7054 3.76425 10.2691 5.55567 9.38311C5.63058 9.34294 5.70984 9.30169 5.79127 9.25826C7.84543 8.30826 10.766 7.98038 11.7572 7.98038C11.8213 7.98038 11.9027 7.98146 11.9994 7.98363C11.6747 8.4266 10.5011 10.1171 10.1287 11.8889C9.69439 13.9518 9.36868 14.8203 9.47725 16.6661C9.58582 18.5118 9.58582 23.3975 13.3858 28.066L13.6855 28.4156Z" fill="#FEFEFE"/>
<path d="M57.7779 29.9575C57.3806 31.3689 54.4122 34.7346 45.7266 36.906C39.9723 38.3446 34.1692 38.0514 29.9458 37.3533C27.327 36.9201 24.7908 36.0874 22.412 34.9094C20.1668 33.7965 17.585 32.4828 16.7924 31.966C15.381 31.0432 12.8838 29.5232 11.7438 28.926C11.2716 28.6785 10.1283 28.0586 8.69191 27.1542C9.63539 27.482 12.0522 28.0423 13.3225 28.3343C13.3974 28.3517 13.469 28.368 13.5353 28.3832C13.5353 28.3832 13.5863 28.3951 13.6851 28.4168C15.1475 28.723 27.1859 30.8836 43.3923 22.7918C43.4509 22.7625 43.5106 22.7321 43.5714 22.7017C48.3703 20.2773 57.0082 14.5632 54.5208 10.3604L54.5252 10.3571C54.5936 10.4407 54.6554 10.5287 54.7097 10.6221C54.8758 10.9054 55.0604 11.2735 55.1722 11.609C55.346 12.1301 56.9821 24.0577 57.7779 29.9575Z" fill="#FEFEFE"/>
<path d="M73.43 26.816V12.9651H76.2398L80.672 21.9088L85.0648 12.9651H87.8943V26.816H85.5199V17.0412L81.602 24.8769H79.7421L75.8044 17.061V26.816H73.43ZM93.8907 27.0535C92.9409 27.0535 92.0835 26.8358 91.3184 26.4005C90.5665 25.952 89.9729 25.3386 89.5376 24.5603C89.1154 23.7688 88.9044 22.8652 88.9044 21.8495C88.9044 20.8073 89.122 19.8971 89.5574 19.1189C89.9927 18.3274 90.5863 17.714 91.3382 17.2787C92.1033 16.8302 92.9607 16.6059 93.9105 16.6059C94.8603 16.6059 95.7111 16.8302 96.463 17.2787C97.2281 17.714 97.8217 18.3208 98.2439 19.0991C98.6792 19.8774 98.8968 20.7876 98.8968 21.8297C98.8968 22.8718 98.6792 23.782 98.2439 24.5603C97.8085 25.3386 97.2083 25.952 96.4432 26.4005C95.6913 26.8358 94.8405 27.0535 93.8907 27.0535ZM93.8907 25.0154C94.3656 25.0154 94.7943 24.8967 95.1769 24.6592C95.5726 24.4218 95.8892 24.0656 96.1266 23.5907C96.3641 23.1158 96.4828 22.5288 96.4828 21.8297C96.4828 21.1305 96.3641 20.5501 96.1266 20.0884C95.9024 19.6135 95.5924 19.2574 95.1967 19.0199C94.8141 18.7825 94.3854 18.6638 93.9105 18.6638C93.4488 18.6638 93.0201 18.7825 92.6243 19.0199C92.2286 19.2574 91.912 19.6135 91.6746 20.0884C91.4371 20.5501 91.3184 21.1305 91.3184 21.8297C91.3184 22.5288 91.4371 23.1158 91.6746 23.5907C91.912 24.0656 92.222 24.4218 92.6046 24.6592C93.0003 24.8967 93.429 25.0154 93.8907 25.0154ZM105.535 27.0535C105.007 27.0535 104.532 26.9809 104.11 26.8358C103.688 26.7039 103.319 26.5192 103.002 26.2818C102.685 26.0311 102.422 25.7475 102.211 25.4309L101.953 26.816H99.8361V12.5693H102.211V18.3076C102.527 17.8195 102.956 17.4172 103.497 17.1006C104.038 16.7708 104.71 16.6059 105.515 16.6059C106.452 16.6059 107.276 16.8368 107.988 17.2984C108.714 17.747 109.281 18.3669 109.69 19.1584C110.112 19.9367 110.323 20.8337 110.323 21.8495C110.323 22.8388 110.119 23.7292 109.71 24.5207C109.301 25.3122 108.734 25.9322 108.008 26.3807C107.296 26.8292 106.471 27.0535 105.535 27.0535ZM105.04 24.9956C105.594 24.9956 106.089 24.8637 106.524 24.5999C106.959 24.3228 107.296 23.9535 107.533 23.4918C107.784 23.0169 107.909 22.4629 107.909 21.8297C107.909 21.2097 107.784 20.6622 107.533 20.1874C107.296 19.7125 106.959 19.3431 106.524 19.0793C106.089 18.8155 105.594 18.6835 105.04 18.6835C104.473 18.6835 103.972 18.8155 103.536 19.0793C103.114 19.3431 102.778 19.7125 102.527 20.1874C102.29 20.6622 102.171 21.2097 102.171 21.8297C102.171 22.4629 102.29 23.0169 102.527 23.4918C102.778 23.9535 103.114 24.3228 103.536 24.5999C103.972 24.8637 104.473 24.9956 105.04 24.9956ZM114.943 27.0535C114.139 27.0535 113.446 26.8952 112.866 26.5786C112.298 26.2488 111.863 25.7607 111.56 25.1143C111.256 24.4548 111.105 23.6435 111.105 22.6805V16.8433H113.479V22.4431C113.479 23.3005 113.657 23.9535 114.013 24.402C114.383 24.8373 114.937 25.055 115.675 25.055C116.15 25.055 116.572 24.9428 116.942 24.7186C117.324 24.4943 117.621 24.1711 117.832 23.749C118.056 23.3137 118.168 22.7861 118.168 22.1661V16.8433H120.543V26.816H118.445L118.267 25.1539C117.964 25.7343 117.522 26.196 116.942 26.539C116.374 26.882 115.708 27.0535 114.943 27.0535ZM121.899 26.816V16.8433H124.273V26.816H121.899ZM123.086 15.2604C122.651 15.2604 122.288 15.1285 121.998 14.8646C121.721 14.5876 121.582 14.2512 121.582 13.8555C121.582 13.4466 121.721 13.1168 121.998 12.8662C122.288 12.6023 122.651 12.4704 123.086 12.4704C123.521 12.4704 123.877 12.6023 124.154 12.8662C124.445 13.1168 124.59 13.4466 124.59 13.8555C124.59 14.2512 124.445 14.5876 124.154 14.8646C123.877 15.1285 123.521 15.2604 123.086 15.2604ZM129.609 27.0535C128.725 27.0535 127.954 26.9149 127.294 26.6379C126.648 26.3477 126.133 25.952 125.751 25.4507C125.381 24.9362 125.164 24.3492 125.098 23.6897H127.472C127.538 23.9667 127.657 24.2239 127.828 24.4614C128 24.6856 128.231 24.8637 128.521 24.9956C128.824 25.1275 129.18 25.1935 129.589 25.1935C129.985 25.1935 130.308 25.1407 130.559 25.0352C130.809 24.9165 130.994 24.7648 131.113 24.5801C131.232 24.3954 131.291 24.1975 131.291 23.9865C131.291 23.6699 131.205 23.4258 131.034 23.2543C130.862 23.0829 130.612 22.9509 130.282 22.8586C129.965 22.7531 129.583 22.6541 129.134 22.5618C128.659 22.4695 128.198 22.3573 127.749 22.2254C127.314 22.0803 126.918 21.9022 126.562 21.6912C126.219 21.4801 125.942 21.2097 125.731 20.8799C125.533 20.5501 125.434 20.1478 125.434 19.6729C125.434 19.0925 125.586 18.5714 125.889 18.1097C126.206 17.648 126.654 17.2853 127.235 17.0214C127.828 16.7444 128.534 16.6059 129.352 16.6059C130.513 16.6059 131.436 16.8763 132.122 17.4172C132.821 17.9448 133.23 18.6901 133.349 19.6531H131.093C131.027 19.2837 130.842 19.0001 130.539 18.8023C130.236 18.5912 129.833 18.4857 129.332 18.4857C128.818 18.4857 128.422 18.5846 128.145 18.7825C127.881 18.9672 127.749 19.2178 127.749 19.5344C127.749 19.7323 127.828 19.9169 127.987 20.0884C128.158 20.2467 128.402 20.3852 128.719 20.5039C129.035 20.6095 129.424 20.715 129.886 20.8205C130.625 20.9656 131.278 21.1371 131.845 21.335C132.412 21.5329 132.861 21.8231 133.191 22.2056C133.52 22.5882 133.685 23.129 133.685 23.8282C133.698 24.4614 133.534 25.022 133.191 25.5101C132.861 25.9981 132.392 26.3807 131.786 26.6577C131.179 26.9215 130.453 27.0535 129.609 27.0535ZM134.683 26.816V12.9651H143.627V14.8844H137.058V18.8616H143.033V20.7414H137.058V24.8967H143.627V26.816H134.683ZM144.658 26.816V16.8433H146.756L146.934 18.5055C147.237 17.925 147.673 17.4633 148.24 17.1204C148.807 16.7774 149.48 16.6059 150.258 16.6059C151.063 16.6059 151.749 16.7774 152.316 17.1204C152.883 17.4501 153.318 17.9382 153.622 18.5846C153.938 19.231 154.097 20.0357 154.097 20.9986V26.816H151.722V21.2163C151.722 20.3852 151.538 19.7454 151.168 19.2969C150.799 18.8484 150.251 18.6242 149.526 18.6242C149.051 18.6242 148.622 18.7363 148.24 18.9606C147.87 19.1848 147.574 19.5146 147.349 19.9499C147.138 20.372 147.033 20.8865 147.033 21.4933V26.816H144.658ZM159.41 31.4066C158.473 31.4066 157.649 31.2879 156.937 31.0504C156.237 30.8262 155.69 30.4766 155.294 30.0017C154.912 29.54 154.72 28.9596 154.72 28.2605C154.72 27.8515 154.819 27.4492 155.017 27.0535C155.228 26.6709 155.538 26.3147 155.947 25.985C156.369 25.642 156.904 25.3452 157.55 25.0945L158.599 26.2422C157.965 26.4664 157.524 26.7369 157.273 27.0535C157.022 27.37 156.897 27.6932 156.897 28.023C156.897 28.366 157.002 28.6496 157.214 28.8739C157.438 29.1113 157.735 29.2894 158.104 29.4081C158.486 29.5268 158.915 29.5862 159.39 29.5862C159.852 29.5862 160.254 29.5202 160.597 29.3883C160.94 29.2696 161.204 29.0981 161.389 28.8739C161.586 28.6496 161.685 28.3792 161.685 28.0626C161.685 27.6669 161.547 27.3437 161.27 27.093C160.993 26.8556 160.445 26.7105 159.628 26.6577C158.928 26.6049 158.315 26.5324 157.787 26.4401C157.26 26.3345 156.805 26.2158 156.422 26.0839C156.053 25.952 155.736 25.8069 155.472 25.6486C155.208 25.4771 154.991 25.3056 154.819 25.1341V24.679L156.897 22.5024L158.658 23.0763L156.323 25.3518L156.937 24.2041C157.068 24.2965 157.2 24.3822 157.332 24.4614C157.477 24.5405 157.655 24.6131 157.867 24.679C158.091 24.7318 158.381 24.7845 158.737 24.8373C159.093 24.8901 159.555 24.9428 160.122 24.9956C161.006 25.0616 161.725 25.2199 162.279 25.4705C162.833 25.7211 163.242 26.0575 163.506 26.4796C163.77 26.9018 163.902 27.4096 163.902 28.0032C163.902 28.5837 163.737 29.1311 163.407 29.6456C163.09 30.16 162.602 30.5821 161.943 30.9119C161.283 31.2417 160.439 31.4066 159.41 31.4066ZM159.41 23.8282C158.579 23.8282 157.86 23.6699 157.253 23.3533C156.659 23.0235 156.204 22.5882 155.888 22.0473C155.571 21.4933 155.413 20.8865 155.413 20.2269C155.413 19.5542 155.571 18.9474 155.888 18.4065C156.204 17.8657 156.659 17.4304 157.253 17.1006C157.86 16.7708 158.579 16.6059 159.41 16.6059C160.241 16.6059 160.953 16.7708 161.547 17.1006C162.141 17.4304 162.596 17.8657 162.912 18.4065C163.229 18.9474 163.387 19.5542 163.387 20.2269C163.387 20.8865 163.229 21.4933 162.912 22.0473C162.596 22.5882 162.141 23.0235 161.547 23.3533C160.953 23.6699 160.241 23.8282 159.41 23.8282ZM159.41 21.988C159.977 21.988 160.432 21.8363 160.775 21.5329C161.118 21.2295 161.29 20.7942 161.29 20.2269C161.29 19.6597 161.118 19.231 160.775 18.9408C160.432 18.6374 159.977 18.4857 159.41 18.4857C158.843 18.4857 158.381 18.6374 158.025 18.9408C157.669 19.231 157.491 19.6597 157.491 20.2269C157.491 20.7942 157.669 21.2295 158.025 21.5329C158.381 21.8363 158.843 21.988 159.41 21.988ZM161.052 18.5846L160.597 16.8433H164.693V18.3274L161.052 18.5846ZM165.504 26.816V16.8433H167.878V26.816H165.504ZM166.691 15.2604C166.255 15.2604 165.893 15.1285 165.602 14.8646C165.325 14.5876 165.187 14.2512 165.187 13.8555C165.187 13.4466 165.325 13.1168 165.602 12.8662C165.893 12.6023 166.255 12.4704 166.691 12.4704C167.126 12.4704 167.482 12.6023 167.759 12.8662C168.049 13.1168 168.195 13.4466 168.195 13.8555C168.195 14.2512 168.049 14.5876 167.759 14.8646C167.482 15.1285 167.126 15.2604 166.691 15.2604ZM169.237 26.816V16.8433H171.334L171.512 18.5055C171.816 17.925 172.251 17.4633 172.818 17.1204C173.385 16.7774 174.058 16.6059 174.837 16.6059C175.641 16.6059 176.327 16.7774 176.894 17.1204C177.462 17.4501 177.897 17.9382 178.2 18.5846C178.517 19.231 178.675 20.0357 178.675 20.9986V26.816H176.301V21.2163C176.301 20.3852 176.116 19.7454 175.747 19.2969C175.377 18.8484 174.83 18.6242 174.104 18.6242C173.63 18.6242 173.201 18.7363 172.818 18.9606C172.449 19.1848 172.152 19.5146 171.928 19.9499C171.717 20.372 171.611 20.8865 171.611 21.4933V26.816H169.237ZM184.463 27.0535C183.474 27.0535 182.603 26.8424 181.851 26.4203C181.099 25.985 180.512 25.3782 180.09 24.5999C179.668 23.8216 179.457 22.9246 179.457 21.9088C179.457 20.8535 179.662 19.9301 180.07 19.1386C180.493 18.3472 181.08 17.7272 181.832 17.2787C182.597 16.8302 183.48 16.6059 184.483 16.6059C185.459 16.6059 186.31 16.8236 187.036 17.2589C187.761 17.6942 188.322 18.2812 188.717 19.0199C189.113 19.7454 189.311 20.5633 189.311 21.4735C189.311 21.6054 189.311 21.7505 189.311 21.9088C189.311 22.0671 189.298 22.232 189.271 22.4035H181.159V20.8799H186.917C186.89 20.1544 186.646 19.5871 186.185 19.1782C185.723 18.7561 185.149 18.545 184.463 18.545C183.975 18.545 183.527 18.6572 183.118 18.8814C182.709 19.1057 182.386 19.442 182.148 19.8905C181.911 20.3259 181.792 20.8799 181.792 21.5527V22.1265C181.792 22.7465 181.904 23.2807 182.128 23.7292C182.366 24.1777 182.682 24.5207 183.078 24.7582C183.487 24.9824 183.942 25.0945 184.443 25.0945C184.997 25.0945 185.453 24.9758 185.809 24.7384C186.178 24.5009 186.449 24.1843 186.62 23.7886H189.034C188.849 24.4086 188.546 24.9692 188.124 25.4705C187.702 25.9586 187.181 26.3477 186.561 26.6379C185.941 26.9149 185.241 27.0535 184.463 27.0535Z" fill="#FEFEFE"/>
<path d="M197.194 27.0535C196.31 27.0535 195.538 26.8886 194.879 26.5588C194.232 26.2158 193.731 25.7277 193.375 25.0945C193.019 24.4482 192.841 23.6699 192.841 22.7597H195.215C195.215 23.195 195.281 23.5775 195.413 23.9073C195.545 24.2371 195.749 24.4943 196.026 24.679C196.317 24.8505 196.686 24.9362 197.134 24.9362C197.583 24.9362 197.939 24.8505 198.203 24.679C198.467 24.5075 198.658 24.2701 198.777 23.9667C198.909 23.6501 198.975 23.2873 198.975 22.8784V12.9651H201.349V22.8784C201.349 24.2239 200.973 25.2594 200.221 25.985C199.483 26.6973 198.473 27.0535 197.194 27.0535ZM207.331 27.0535C206.381 27.0535 205.523 26.8358 204.758 26.4005C204.006 25.952 203.413 25.3386 202.978 24.5603C202.555 23.7688 202.344 22.8652 202.344 21.8495C202.344 20.8073 202.562 19.8971 202.997 19.1189C203.433 18.3274 204.026 17.714 204.778 17.2787C205.543 16.8302 206.401 16.6059 207.35 16.6059C208.3 16.6059 209.151 16.8302 209.903 17.2787C210.668 17.714 211.262 18.3208 211.684 19.0991C212.119 19.8774 212.337 20.7876 212.337 21.8297C212.337 22.8718 212.119 23.782 211.684 24.5603C211.248 25.3386 210.648 25.952 209.883 26.4005C209.131 26.8358 208.28 27.0535 207.331 27.0535ZM207.331 25.0154C207.806 25.0154 208.234 24.8967 208.617 24.6592C209.013 24.4218 209.329 24.0656 209.567 23.5907C209.804 23.1158 209.923 22.5288 209.923 21.8297C209.923 21.1305 209.804 20.5501 209.567 20.0884C209.342 19.6135 209.032 19.2574 208.637 19.0199C208.254 18.7825 207.825 18.6638 207.35 18.6638C206.889 18.6638 206.46 18.7825 206.064 19.0199C205.669 19.2574 205.352 19.6135 205.115 20.0884C204.877 20.5501 204.758 21.1305 204.758 21.8297C204.758 22.5288 204.877 23.1158 205.115 23.5907C205.352 24.0656 205.662 24.4218 206.045 24.6592C206.44 24.8967 206.869 25.0154 207.331 25.0154ZM218.975 27.0535C218.447 27.0535 217.972 26.9809 217.55 26.8358C217.128 26.7039 216.759 26.5192 216.442 26.2818C216.125 26.0311 215.862 25.7475 215.65 25.4309L215.393 26.816H213.276V12.5693H215.65V18.3076C215.967 17.8195 216.396 17.4172 216.937 17.1006C217.477 16.7708 218.15 16.6059 218.955 16.6059C219.892 16.6059 220.716 16.8368 221.428 17.2984C222.154 17.747 222.721 18.3669 223.13 19.1584C223.552 19.9367 223.763 20.8337 223.763 21.8495C223.763 22.8388 223.559 23.7292 223.15 24.5207C222.741 25.3122 222.174 25.9322 221.448 26.3807C220.736 26.8292 219.911 27.0535 218.975 27.0535ZM218.48 24.9956C219.034 24.9956 219.529 24.8637 219.964 24.5999C220.399 24.3228 220.736 23.9535 220.973 23.4918C221.224 23.0169 221.349 22.4629 221.349 21.8297C221.349 21.2097 221.224 20.6622 220.973 20.1874C220.736 19.7125 220.399 19.3431 219.964 19.0793C219.529 18.8155 219.034 18.6835 218.48 18.6835C217.913 18.6835 217.412 18.8155 216.976 19.0793C216.554 19.3431 216.218 19.7125 215.967 20.1874C215.73 20.6622 215.611 21.2097 215.611 21.8297C215.611 22.4629 215.73 23.0169 215.967 23.4918C216.218 23.9535 216.554 24.3228 216.976 24.5999C217.412 24.8637 217.913 24.9956 218.48 24.9956ZM229.412 27.0535C228.41 27.0535 227.519 26.8754 226.741 26.5192C225.963 26.163 225.356 25.6552 224.92 24.9956C224.485 24.336 224.261 23.5511 224.248 22.6409H226.761C226.761 23.1026 226.866 23.5182 227.077 23.8875C227.301 24.2437 227.605 24.5273 227.987 24.7384C228.383 24.9494 228.858 25.055 229.412 25.055C229.887 25.055 230.296 24.9824 230.639 24.8373C230.995 24.679 231.265 24.4614 231.45 24.1843C231.648 23.8941 231.747 23.5577 231.747 23.1752C231.747 22.7399 231.641 22.3837 231.43 22.1067C231.232 21.8165 230.955 21.5724 230.599 21.3746C230.243 21.1767 229.834 21.0052 229.372 20.8601C228.911 20.7018 228.423 20.5369 227.908 20.3654C226.813 19.9961 225.989 19.5278 225.435 18.9606C224.881 18.3801 224.604 17.6084 224.604 16.6455C224.604 15.8408 224.795 15.1483 225.178 14.5678C225.56 13.9874 226.094 13.5389 226.78 13.2223C227.48 12.8925 228.284 12.7276 229.194 12.7276C230.118 12.7276 230.922 12.8925 231.608 13.2223C232.308 13.5521 232.855 14.0138 233.251 14.6074C233.66 15.1878 233.871 15.887 233.884 16.7048H231.351C231.338 16.3619 231.246 16.0453 231.074 15.7551C230.903 15.4517 230.652 15.2076 230.322 15.0229C230.006 14.8251 229.617 14.7261 229.155 14.7261C228.759 14.7129 228.403 14.7789 228.086 14.924C227.783 15.0559 227.539 15.2538 227.354 15.5176C227.183 15.7683 227.097 16.0848 227.097 16.4674C227.097 16.8368 227.176 17.1467 227.334 17.3974C227.506 17.6348 227.75 17.8393 228.067 18.0108C228.383 18.1691 228.752 18.3208 229.175 18.4659C229.597 18.611 230.058 18.7693 230.56 18.9408C231.246 19.165 231.866 19.442 232.42 19.7718C232.987 20.0884 233.435 20.5039 233.765 21.0184C234.095 21.5329 234.26 22.199 234.26 23.0169C234.26 23.7292 234.075 24.3954 233.706 25.0154C233.336 25.6222 232.796 26.1169 232.083 26.4994C231.371 26.8688 230.481 27.0535 229.412 27.0535ZM239.774 27.0535C238.785 27.0535 237.914 26.8424 237.162 26.4203C236.41 25.985 235.823 25.3782 235.401 24.5999C234.979 23.8216 234.768 22.9246 234.768 21.9088C234.768 20.8535 234.972 19.9301 235.381 19.1386C235.804 18.3472 236.391 17.7272 237.142 17.2787C237.908 16.8302 238.791 16.6059 239.794 16.6059C240.77 16.6059 241.621 16.8236 242.346 17.2589C243.072 17.6942 243.633 18.2812 244.028 19.0199C244.424 19.7454 244.622 20.5633 244.622 21.4735C244.622 21.6054 244.622 21.7505 244.622 21.9088C244.622 22.0671 244.609 22.232 244.582 22.4035H236.47V20.8799H242.228C242.201 20.1544 241.957 19.5871 241.496 19.1782C241.034 18.7561 240.46 18.545 239.774 18.545C239.286 18.545 238.838 18.6572 238.429 18.8814C238.02 19.1057 237.696 19.442 237.459 19.8905C237.222 20.3259 237.103 20.8799 237.103 21.5527V22.1265C237.103 22.7465 237.215 23.2807 237.439 23.7292C237.677 24.1777 237.993 24.5207 238.389 24.7582C238.798 24.9824 239.253 25.0945 239.754 25.0945C240.308 25.0945 240.763 24.9758 241.12 24.7384C241.489 24.5009 241.759 24.1843 241.931 23.7886H244.345C244.16 24.4086 243.857 24.9692 243.435 25.4705C243.013 25.9586 242.492 26.3477 241.872 26.6379C241.252 26.9149 240.552 27.0535 239.774 27.0535ZM248.753 27.0535C247.936 27.0535 247.256 26.9149 246.715 26.6379C246.175 26.3609 245.772 25.9915 245.508 25.5299C245.245 25.0682 245.113 24.5669 245.113 24.026C245.113 23.3929 245.271 22.8454 245.587 22.3837C245.917 21.922 246.399 21.5659 247.032 21.3152C247.665 21.0514 248.443 20.9195 249.367 20.9195H251.88C251.88 20.3918 251.807 19.9565 251.662 19.6135C251.517 19.2574 251.293 18.9935 250.989 18.822C250.686 18.6506 250.297 18.5648 249.822 18.5648C249.281 18.5648 248.819 18.6901 248.437 18.9408C248.054 19.1782 247.817 19.5476 247.724 20.0488H245.39C245.469 19.3365 245.706 18.7297 246.102 18.2284C246.498 17.714 247.019 17.3182 247.665 17.0412C248.325 16.751 249.044 16.6059 249.822 16.6059C250.759 16.6059 251.557 16.7708 252.216 17.1006C252.876 17.4172 253.377 17.8789 253.72 18.4857C254.076 19.0793 254.254 19.7982 254.254 20.6425V26.816H252.236L251.998 25.2133C251.867 25.4771 251.695 25.7211 251.484 25.9454C251.286 26.1696 251.055 26.3675 250.791 26.539C250.528 26.6973 250.224 26.8226 249.881 26.9149C249.551 27.0073 249.176 27.0535 248.753 27.0535ZM249.288 25.1737C249.67 25.1737 250.007 25.1077 250.297 24.9758C250.6 24.8307 250.857 24.6328 251.069 24.3822C251.293 24.1184 251.464 23.8282 251.583 23.5116C251.702 23.195 251.781 22.8586 251.82 22.5024V22.4629H249.624C249.162 22.4629 248.78 22.5222 248.476 22.6409C248.173 22.7465 247.955 22.9048 247.823 23.1158C247.692 23.3269 247.626 23.5709 247.626 23.848C247.626 24.125 247.692 24.3624 247.823 24.5603C247.955 24.7582 248.147 24.9099 248.397 25.0154C248.648 25.1209 248.945 25.1737 249.288 25.1737ZM255.406 26.816V16.8433H257.523L257.741 18.7033C257.979 18.268 258.275 17.8987 258.631 17.5953C258.988 17.2787 259.403 17.0346 259.878 16.8631C260.366 16.6916 260.9 16.6059 261.481 16.6059V19.1189H260.65C260.254 19.1189 259.878 19.1716 259.522 19.2772C259.166 19.3695 258.856 19.5278 258.592 19.752C258.341 19.9631 258.143 20.2599 257.998 20.6425C257.853 21.0118 257.781 21.4801 257.781 22.0473V26.816H255.406ZM266.402 27.0535C265.426 27.0535 264.549 26.8358 263.771 26.4005C263.005 25.952 262.405 25.3386 261.97 24.5603C261.548 23.7688 261.337 22.8718 261.337 21.8693C261.337 20.8271 261.548 19.9169 261.97 19.1386C262.405 18.3472 263.005 17.7272 263.771 17.2787C264.549 16.8302 265.433 16.6059 266.422 16.6059C267.662 16.6059 268.704 16.9357 269.548 17.5953C270.393 18.2416 270.933 19.132 271.171 20.2665H268.678C268.546 19.7652 268.269 19.3695 267.847 19.0793C267.438 18.7891 266.95 18.644 266.382 18.644C265.894 18.644 265.446 18.7693 265.037 19.0199C264.641 19.2706 264.325 19.6333 264.087 20.1082C263.863 20.5831 263.751 21.1569 263.751 21.8297C263.751 22.3441 263.817 22.7992 263.949 23.195C264.081 23.5907 264.265 23.9271 264.503 24.2041C264.753 24.4679 265.037 24.6724 265.354 24.8175C265.67 24.9626 266.013 25.0352 266.382 25.0352C266.765 25.0352 267.108 24.9758 267.411 24.8571C267.728 24.7252 267.992 24.5339 268.203 24.2833C268.427 24.0326 268.585 23.7358 268.678 23.3929H271.171C270.933 24.5009 270.393 25.3913 269.548 26.0641C268.704 26.7237 267.655 27.0535 266.402 27.0535ZM272.075 26.816V12.5693H274.45V18.3867C274.779 17.8459 275.228 17.4172 275.795 17.1006C276.362 16.7708 277.002 16.6059 277.715 16.6059C278.532 16.6059 279.225 16.7774 279.792 17.1204C280.359 17.4501 280.788 17.9448 281.078 18.6044C281.382 19.2508 281.533 20.062 281.533 21.0382V26.816H279.179V21.2559C279.179 20.3984 278.994 19.7454 278.625 19.2969C278.269 18.8484 277.721 18.6242 276.982 18.6242C276.508 18.6242 276.079 18.7429 275.696 18.9803C275.314 19.2046 275.01 19.5344 274.786 19.9697C274.562 20.3918 274.45 20.9129 274.45 21.5329V26.816H272.075ZM281.839 26.816L286.905 12.9651H289.556L294.622 26.816H292.109L288.211 15.7353L284.313 26.816H281.839ZM284.095 23.5511L284.728 21.6714H291.555L292.188 23.5511H284.095ZM295.142 26.816V12.9651H297.517V26.816H295.142Z" fill="url(#paint0_linear_90_8665)"/>
<path d="M249.6 38V32.4H251.424C251.867 32.4 252.229 32.4747 252.512 32.624C252.8 32.768 253.011 32.9627 253.144 33.208C253.283 33.4533 253.352 33.7333 253.352 34.048C253.352 34.352 253.283 34.6293 253.144 34.88C253.011 35.1253 252.803 35.3227 252.52 35.472C252.237 35.6213 251.872 35.696 251.424 35.696H250.272V38H249.6ZM250.272 35.128H251.416C251.864 35.128 252.184 35.0293 252.376 34.832C252.568 34.6347 252.664 34.3733 252.664 34.048C252.664 33.7013 252.568 33.4347 252.376 33.248C252.184 33.056 251.864 32.96 251.416 32.96H250.272V35.128ZM254.765 38.096C254.44 38.096 254.168 38.04 253.949 37.928C253.73 37.8107 253.568 37.6587 253.461 37.472C253.354 37.28 253.301 37.072 253.301 36.848C253.301 36.576 253.37 36.3467 253.509 36.16C253.653 35.968 253.853 35.824 254.109 35.728C254.37 35.6267 254.677 35.576 255.029 35.576H256.093C256.093 35.3253 256.053 35.1173 255.973 34.952C255.898 34.7813 255.786 34.6533 255.637 34.568C255.493 34.4827 255.312 34.44 255.093 34.44C254.837 34.44 254.616 34.504 254.429 34.632C254.242 34.76 254.128 34.9493 254.085 35.2H253.397C253.429 34.912 253.525 34.672 253.685 34.48C253.85 34.2827 254.058 34.1333 254.309 34.032C254.56 33.9253 254.821 33.872 255.093 33.872C255.466 33.872 255.776 33.9413 256.021 34.08C256.272 34.2133 256.458 34.4027 256.581 34.648C256.704 34.888 256.765 35.1733 256.765 35.504V38H256.165L256.125 37.288C256.072 37.4 256.002 37.5067 255.917 37.608C255.837 37.704 255.741 37.7893 255.629 37.864C255.517 37.9333 255.389 37.9893 255.245 38.032C255.106 38.0747 254.946 38.096 254.765 38.096ZM254.869 37.528C255.056 37.528 255.224 37.4907 255.373 37.416C255.528 37.336 255.658 37.2293 255.765 37.096C255.872 36.9573 255.952 36.8053 256.005 36.64C256.064 36.4747 256.093 36.3013 256.093 36.12V36.096H255.085C254.824 36.096 254.613 36.128 254.453 36.192C254.293 36.2507 254.178 36.336 254.109 36.448C254.04 36.5547 254.005 36.6773 254.005 36.816C254.005 36.96 254.037 37.0853 254.101 37.192C254.17 37.2987 254.269 37.3813 254.397 37.44C254.53 37.4987 254.688 37.528 254.869 37.528ZM258.719 38C258.479 38 258.271 37.9627 258.095 37.888C257.919 37.8133 257.783 37.688 257.687 37.512C257.597 37.3307 257.551 37.088 257.551 36.784V34.536H256.847V33.968H257.551L257.639 32.992H258.223V33.968H259.391V34.536H258.223V36.784C258.223 37.0347 258.274 37.2053 258.375 37.296C258.477 37.3813 258.655 37.424 258.911 37.424H259.343V38H258.719ZM261.367 38.096C260.988 38.096 260.652 38.008 260.359 37.832C260.071 37.656 259.844 37.4107 259.679 37.096C259.513 36.776 259.431 36.4053 259.431 35.984C259.431 35.5573 259.511 35.1867 259.671 34.872C259.836 34.5573 260.065 34.312 260.359 34.136C260.657 33.96 260.999 33.872 261.383 33.872C261.777 33.872 262.111 33.96 262.383 34.136C262.66 34.312 262.871 34.544 263.015 34.832C263.164 35.1147 263.239 35.4267 263.239 35.768C263.239 35.8213 263.239 35.8773 263.239 35.936C263.239 35.9947 263.236 36.0613 263.231 36.136H259.935V35.616H262.583C262.567 35.248 262.444 34.96 262.215 34.752C261.991 34.544 261.708 34.44 261.367 34.44C261.137 34.44 260.924 34.4933 260.727 34.6C260.535 34.7013 260.38 34.8533 260.263 35.056C260.145 35.2533 260.087 35.5013 260.087 35.8V36.024C260.087 36.3547 260.145 36.632 260.263 36.856C260.385 37.08 260.543 37.248 260.735 37.36C260.932 37.472 261.143 37.528 261.367 37.528C261.649 37.528 261.881 37.4667 262.063 37.344C262.249 37.216 262.383 37.0453 262.463 36.832H263.127C263.063 37.072 262.951 37.288 262.791 37.48C262.631 37.672 262.431 37.824 262.191 37.936C261.956 38.0427 261.681 38.096 261.367 38.096ZM263.586 38V33.968H264.194L264.226 34.672C264.354 34.4213 264.535 34.2267 264.77 34.088C265.01 33.944 265.282 33.872 265.586 33.872C265.9 33.872 266.172 33.936 266.402 34.064C266.631 34.1867 266.81 34.376 266.938 34.632C267.066 34.8827 267.13 35.2027 267.13 35.592V38H266.458V35.664C266.458 35.2587 266.367 34.9547 266.186 34.752C266.01 34.5493 265.759 34.448 265.434 34.448C265.21 34.448 265.01 34.504 264.834 34.616C264.658 34.7227 264.516 34.88 264.41 35.088C264.308 35.2907 264.258 35.544 264.258 35.848V38H263.586ZM269.203 38C268.963 38 268.755 37.9627 268.579 37.888C268.403 37.8133 268.267 37.688 268.171 37.512C268.081 37.3307 268.035 37.088 268.035 36.784V34.536H267.331V33.968H268.035L268.123 32.992H268.707V33.968H269.875V34.536H268.707V36.784C268.707 37.0347 268.758 37.2053 268.859 37.296C268.961 37.3813 269.139 37.424 269.395 37.424H269.827V38H269.203ZM271.797 38V32.4H273.621C274.064 32.4 274.427 32.4747 274.709 32.624C274.997 32.768 275.208 32.9627 275.341 33.208C275.48 33.4533 275.549 33.7333 275.549 34.048C275.549 34.352 275.48 34.6293 275.341 34.88C275.208 35.1253 275 35.3227 274.717 35.472C274.435 35.6213 274.069 35.696 273.621 35.696H272.469V38H271.797ZM272.469 35.128H273.613C274.061 35.128 274.381 35.0293 274.573 34.832C274.765 34.6347 274.861 34.3733 274.861 34.048C274.861 33.7013 274.765 33.4347 274.573 33.248C274.381 33.056 274.061 32.96 273.613 32.96H272.469V35.128ZM277.371 38.096C276.993 38.096 276.657 38.008 276.363 37.832C276.075 37.656 275.849 37.4107 275.683 37.096C275.518 36.776 275.435 36.4053 275.435 35.984C275.435 35.5573 275.515 35.1867 275.675 34.872C275.841 34.5573 276.07 34.312 276.363 34.136C276.662 33.96 277.003 33.872 277.387 33.872C277.782 33.872 278.115 33.96 278.387 34.136C278.665 34.312 278.875 34.544 279.019 34.832C279.169 35.1147 279.243 35.4267 279.243 35.768C279.243 35.8213 279.243 35.8773 279.243 35.936C279.243 35.9947 279.241 36.0613 279.235 36.136H275.939V35.616H278.587C278.571 35.248 278.449 34.96 278.219 34.752C277.995 34.544 277.713 34.44 277.371 34.44C277.142 34.44 276.929 34.4933 276.731 34.6C276.539 34.7013 276.385 34.8533 276.267 35.056C276.15 35.2533 276.091 35.5013 276.091 35.8V36.024C276.091 36.3547 276.15 36.632 276.267 36.856C276.39 37.08 276.547 37.248 276.739 37.36C276.937 37.472 277.147 37.528 277.371 37.528C277.654 37.528 277.886 37.4667 278.067 37.344C278.254 37.216 278.387 37.0453 278.467 36.832H279.131C279.067 37.072 278.955 37.288 278.795 37.48C278.635 37.672 278.435 37.824 278.195 37.936C277.961 38.0427 277.686 38.096 277.371 38.096ZM279.59 38V33.968H280.198L280.23 34.672C280.358 34.4213 280.54 34.2267 280.774 34.088C281.014 33.944 281.286 33.872 281.59 33.872C281.905 33.872 282.177 33.936 282.406 34.064C282.636 34.1867 282.814 34.376 282.942 34.632C283.07 34.8827 283.134 35.2027 283.134 35.592V38H282.462V35.664C282.462 35.2587 282.372 34.9547 282.19 34.752C282.014 34.5493 281.764 34.448 281.438 34.448C281.214 34.448 281.014 34.504 280.838 34.616C280.662 34.7227 280.521 34.88 280.414 35.088C280.313 35.2907 280.262 35.544 280.262 35.848V38H279.59ZM285.4 38.096C285.011 38.096 284.669 38.0053 284.376 37.824C284.083 37.6373 283.856 37.384 283.696 37.064C283.536 36.744 283.456 36.3813 283.456 35.976C283.456 35.5707 283.536 35.2107 283.696 34.896C283.856 34.576 284.083 34.3253 284.376 34.144C284.675 33.9627 285.019 33.872 285.408 33.872C285.739 33.872 286.027 33.9387 286.272 34.072C286.523 34.2053 286.715 34.392 286.848 34.632V32.24H287.52V38H286.912L286.856 37.336C286.771 37.4693 286.661 37.5947 286.528 37.712C286.395 37.824 286.235 37.9173 286.048 37.992C285.861 38.0613 285.645 38.096 285.4 38.096ZM285.48 37.512C285.747 37.512 285.981 37.448 286.184 37.32C286.387 37.192 286.544 37.016 286.656 36.792C286.768 36.5627 286.824 36.2933 286.824 35.984C286.824 35.68 286.768 35.4133 286.656 35.184C286.544 34.9547 286.387 34.776 286.184 34.648C285.981 34.52 285.747 34.456 285.48 34.456C285.219 34.456 284.987 34.52 284.784 34.648C284.581 34.776 284.424 34.9547 284.312 35.184C284.2 35.4133 284.144 35.68 284.144 35.984C284.144 36.2933 284.2 36.5627 284.312 36.792C284.424 37.016 284.581 37.192 284.784 37.32C284.987 37.448 285.219 37.512 285.48 37.512ZM288.144 38V33.968H288.816V38H288.144ZM288.48 33.112C288.346 33.112 288.234 33.0693 288.144 32.984C288.058 32.8933 288.016 32.7813 288.016 32.648C288.016 32.5147 288.058 32.408 288.144 32.328C288.234 32.2427 288.346 32.2 288.48 32.2C288.608 32.2 288.717 32.2427 288.808 32.328C288.898 32.408 288.944 32.5147 288.944 32.648C288.944 32.7813 288.898 32.8933 288.808 32.984C288.717 33.0693 288.608 33.112 288.48 33.112ZM289.442 38V33.968H290.05L290.082 34.672C290.21 34.4213 290.391 34.2267 290.626 34.088C290.866 33.944 291.138 33.872 291.442 33.872C291.756 33.872 292.028 33.936 292.258 34.064C292.487 34.1867 292.666 34.376 292.794 34.632C292.922 34.8827 292.986 35.2027 292.986 35.592V38H292.314V35.664C292.314 35.2587 292.223 34.9547 292.042 34.752C291.866 34.5493 291.615 34.448 291.29 34.448C291.066 34.448 290.866 34.504 290.69 34.616C290.514 34.7227 290.372 34.88 290.266 35.088C290.164 35.2907 290.114 35.544 290.114 35.848V38H289.442ZM295.067 39.856C294.705 39.856 294.382 39.808 294.099 39.712C293.822 39.6213 293.606 39.48 293.451 39.288C293.297 39.096 293.219 38.8587 293.219 38.576C293.219 38.4533 293.243 38.3227 293.291 38.184C293.345 38.0453 293.433 37.9093 293.555 37.776C293.683 37.6427 293.862 37.5227 294.091 37.416L294.555 37.688C294.273 37.8053 294.089 37.9387 294.003 38.088C293.918 38.2427 293.875 38.384 293.875 38.512C293.875 38.688 293.926 38.8347 294.027 38.952C294.129 39.0693 294.27 39.1573 294.451 39.216C294.633 39.2747 294.838 39.304 295.067 39.304C295.297 39.304 295.494 39.272 295.659 39.208C295.825 39.144 295.953 39.0533 296.043 38.936C296.134 38.8187 296.179 38.68 296.179 38.52C296.179 38.3333 296.11 38.176 295.971 38.048C295.833 37.9253 295.569 37.8533 295.179 37.832C294.865 37.8107 294.601 37.7813 294.387 37.744C294.174 37.7067 293.998 37.664 293.859 37.616C293.721 37.5627 293.603 37.504 293.507 37.44C293.417 37.376 293.334 37.3093 293.259 37.24V37.056L294.035 36.288L294.619 36.496L293.819 37.216L293.923 36.936C293.982 36.9787 294.038 37.0187 294.091 37.056C294.145 37.0933 294.217 37.1253 294.307 37.152C294.398 37.1787 294.523 37.2027 294.683 37.224C294.849 37.2453 295.065 37.2667 295.331 37.288C295.699 37.3147 295.993 37.3787 296.211 37.48C296.435 37.5813 296.595 37.7173 296.691 37.888C296.793 38.0587 296.843 38.2613 296.843 38.496C296.843 38.7253 296.779 38.9413 296.651 39.144C296.529 39.352 296.337 39.5227 296.075 39.656C295.814 39.7893 295.478 39.856 295.067 39.856ZM295.059 36.736C294.723 36.736 294.435 36.672 294.195 36.544C293.961 36.416 293.782 36.2453 293.659 36.032C293.537 35.8133 293.475 35.5707 293.475 35.304C293.475 35.0373 293.537 34.7973 293.659 34.584C293.787 34.3707 293.969 34.2 294.203 34.072C294.438 33.9387 294.723 33.872 295.059 33.872C295.395 33.872 295.681 33.9387 295.915 34.072C296.15 34.2 296.329 34.3707 296.451 34.584C296.574 34.7973 296.635 35.0373 296.635 35.304C296.635 35.5707 296.574 35.8133 296.451 36.032C296.329 36.2453 296.15 36.416 295.915 36.544C295.681 36.672 295.395 36.736 295.059 36.736ZM295.059 36.184C295.347 36.184 295.574 36.1093 295.739 35.96C295.905 35.8107 295.987 35.592 295.987 35.304C295.987 35.0213 295.905 34.8053 295.739 34.656C295.574 34.5067 295.347 34.432 295.059 34.432C294.777 34.432 294.547 34.5067 294.371 34.656C294.201 34.8053 294.115 35.0213 294.115 35.304C294.115 35.592 294.201 35.8107 294.371 35.96C294.542 36.1093 294.771 36.184 295.059 36.184ZM295.715 34.536L295.515 33.968H297.163V34.472L295.715 34.536Z" fill="#FEFEFE"/>
<defs>
<linearGradient id="paint0_linear_90_8665" x1="245.767" y1="5.81601" x2="245.767" y2="35.816" gradientUnits="userSpaceOnUse">
<stop stop-color="#C3D1FF"/>
<stop offset="1" stop-color="#AE8EFF"/>
</linearGradient>
</defs>
</svg>
